<?xml version="1.0" encoding="iso-8859-1"?>
<!-- Generator: Adobe Illustrator 19.0.0, SVG Export Plug-In . SVG Version: 6.00 Build 0)  -->
<svg version="1.1" id="Capa_1" xmlns="http://www.w3.org/2000/svg" xmlns:xlink="http://www.w3.org/1999/xlink" x="0px" y="0px"
	 viewBox="0 0 512 512" style="enable-background:new 0 0 512 512;" xml:space="preserve">
<circle style="fill:#57A4FF;" cx="256" cy="256" r="256"/>
<path style="fill:#2488FF;" d="M511.745,265.849L301.548,55.652h-91.29h-4.98h-4.98V256l18.455,18.455l-68.296,113.828H77.865
	v22.261l83.341,83.341C190.512,505.567,222.48,512,255.952,512C394.036,512,506.566,402.667,511.745,265.849z"/>
<polygon style="fill:#FFDA44;" points="256.589,211.478 137.149,410.544 385.981,410.544 "/>
<polygon style="fill:#FFA733;" points="256.589,211.478 256.589,410.544 385.981,410.544 "/>
<polygon style="fill:#FFFFFF;" points="256.589,211.478 208.669,291.345 308.501,291.27 "/>
<polygon style="fill:#D8D7DA;" points="256.589,211.478 256.589,291.345 308.501,291.27 "/>
<path style="fill:#1D1D1F;" d="M256,122.435L256,122.435c-22.199,0-40.193,17.995-40.193,40.193v76.367h80.386v-76.367
	C296.193,140.429,278.199,122.435,256,122.435z"/>
<path d="M256,122.435L256,122.435v116.56h40.193v-76.367C296.193,140.429,278.199,122.435,256,122.435z"/>
<path style="fill:#FFDAAA;" d="M237.02,229.17v22.776v7.592c0,4.176,3.416,7.592,7.592,7.592c4.176,0,7.592-3.416,7.592-7.592
	v-7.592h7.592v7.592c0,4.176,3.416,7.592,7.592,7.592s7.592-3.416,7.592-7.592v-7.592V229.17H237.02z"/>
<path style="fill:#FFC477;" d="M256,229.17v22.776h3.797v7.592c0,4.176,3.416,7.592,7.592,7.592s7.592-3.416,7.592-7.592v-7.592
	V229.17H256z"/>
<g>
	<path style="fill:#2D2D30;" d="M259.797,259.092v0.446c0,4.176,3.416,7.592,7.592,7.592s7.592-3.416,7.592-7.592v-0.446H259.797z"
		/>
	<path style="fill:#2D2D30;" d="M237.02,259.092v0.446c0,4.176,3.416,7.592,7.592,7.592c4.176,0,7.592-3.416,7.592-7.592v-0.446
		H237.02z"/>
	<rect x="237.023" y="234.574" style="fill:#2D2D30;" width="37.955" height="17.372"/>
</g>
<rect x="256" y="234.574" width="18.977" height="17.372"/>
<path style="fill:#FFC477;" d="M280.674,244.354L280.674,244.354c-3.132,0-5.694-2.562-5.694-5.694v-7.592h11.388v7.592
	C286.368,241.792,283.806,244.354,280.674,244.354z"/>
<path style="fill:#FFFFFF;" d="M262.192,202.597h-12.384c-4.674,0-9.035,1.33-12.732,3.626v30.539h49.292v-9.988
	C286.368,213.422,275.544,202.597,262.192,202.597z"/>
<path style="fill:#E1E3FA;" d="M262.192,202.598H256v34.164h30.368v-9.988C286.368,213.422,275.544,202.598,262.192,202.598z"/>
<path style="fill:#FFDAAA;" d="M208.098,210.393L208.098,210.393c0-3.42,2.798-6.219,6.219-6.219h8.292v12.437h-8.292
	C210.896,216.613,208.098,213.813,208.098,210.393z"/>
<rect x="217.177" y="204.143" style="fill:#FFFFFF;" width="27.693" height="12.498"/>
<rect x="241.764" y="198.801" style="fill:#C4C8F5;" width="28.136" height="16.077"/>
<polygon style="fill:#FFC477;" points="268.058,197.195 256,221.31 243.942,197.195 "/>
<polygon style="fill:#FFB655;" points="256,197.195 256,221.31 268.058,197.195 "/>
<path style="fill:#FFC477;" d="M231.884,186.744h-8.842c-3.979,0-7.235-3.256-7.235-7.235v-1.607c0-3.979,3.256-7.235,7.235-7.235
	h8.842V186.744z"/>
<path style="fill:#FFB655;" d="M280.116,186.744h8.842c3.979,0,7.235-3.256,7.235-7.235v-1.607c0-3.979-3.256-7.235-7.235-7.235
	h-8.842V186.744L280.116,186.744z"/>
<path style="fill:#FFDAAA;" d="M269.335,158.126c-1.277-0.957-2.482-1.967-3.617-3.016c-11.464,7.445-24.954,11.538-38.924,11.538
	h-6.745c-0.146,1.32-0.224,2.66-0.224,4.019c0,19.978,16.196,36.174,36.174,36.174s36.174-16.196,36.174-36.174
	c0-1.37-0.079-2.723-0.227-4.054C284.54,166.314,276.489,163.49,269.335,158.126z"/>
<path style="fill:#FFC477;" d="M291.947,166.613c-7.407-0.299-15.458-3.122-22.611-8.487c-1.277-0.957-2.482-1.967-3.617-3.016
	c-3.101,2.014-6.351,3.78-9.718,5.288v46.443c19.978,0,36.174-16.196,36.174-36.174
	C292.174,169.296,292.095,167.944,291.947,166.613z"/>
<circle cx="237.078" cy="175.861" r="5.191"/>
<circle cx="274.922" cy="175.861" r="5.191"/>
<path style="fill:#F072AE;" d="M256,198.802c6.659,0,12.058-5.398,12.058-12.058h-24.116
	C243.942,193.404,249.341,198.802,256,198.802z"/>
<path style="fill:#ED539D;" d="M256,186.744v12.058c6.659,0,12.058-5.398,12.058-12.058L256,186.744L256,186.744z"/>
<rect x="77.913" y="388.285" style="fill:#FFFFFF;" width="356.174" height="22.261"/>
<rect x="256" y="388.285" style="fill:#D8D7DA;" width="178.087" height="22.261"/>
<polygon style="fill:#FF3501;" points="301.596,105.446 205.328,105.446 205.328,55.652 301.596,55.652 275.039,80.549 "/>
<rect x="200.348" y="55.652" style="fill:#C4C8F5;" width="9.958" height="200.348"/>
<g>
</g>
<g>
</g>
<g>
</g>
<g>
</g>
<g>
</g>
<g>
</g>
<g>
</g>
<g>
</g>
<g>
</g>
<g>
</g>
<g>
</g>
<g>
</g>
<g>
</g>
<g>
</g>
<g>
</g>
</svg>
