<?xml version="1.0" encoding="iso-8859-1"?>
<!-- Generator: Adobe Illustrator 19.0.0, SVG Export Plug-In . SVG Version: 6.00 Build 0)  -->
<svg version="1.1" id="Layer_1" xmlns="http://www.w3.org/2000/svg" xmlns:xlink="http://www.w3.org/1999/xlink" x="0px" y="0px"
	 viewBox="0 0 512.002 512.002" style="enable-background:new 0 0 512.002 512.002;" xml:space="preserve">
<circle style="fill:#E6F3FF;" cx="256.001" cy="256" r="256"/>
<path style="fill:#CFDBE6;" d="M499.23,336.01L324.969,161.749l-42.413,299.622l41.474,41.474
	C406.693,480.113,472.61,416.985,499.23,336.01z"/>
<path style="fill:#FF6472;" d="M258.587,132.741h-5.172c-49.985,0-90.505,40.52-90.505,90.505v271.293
	C191.763,505.808,223.157,512,256.001,512s64.238-6.192,93.091-17.461V223.246C349.092,173.261,308.571,132.741,258.587,132.741z"/>
<path style="fill:#C75163;" d="M258.587,132.741h-3.734v379.245c0.383,0.002,0.765,0.014,1.148,0.014
	c32.844,0,64.238-6.192,93.091-17.461V223.246C349.092,173.261,308.571,132.741,258.587,132.741z"/>
<path style="fill:#FED8B2;" d="M275.526,315.097v-21.652h-39.048v21.652c0,1.727-1.402,3.129-3.129,3.129h-26.91v74.719h99.125
	v-74.719h-26.91C276.926,318.226,275.526,316.825,275.526,315.097z"/>
<path style="fill:#F9CDA5;" d="M305.563,318.226h-26.908c-1.727,0-3.129-1.402-3.129-3.129v-21.652h-20.673v99.5h50.71V318.226z"/>
<circle style="fill:#FED8B2;" cx="191.096" cy="248.087" r="15.601"/>
<circle style="fill:#EABE96;" cx="317.579" cy="248.087" r="15.601"/>
<path style="fill:#F4E3C3;" d="M256.096,313.063h-3.517c-32.527,0-58.894-26.367-58.894-58.894v-26.614
	c0-32.527,26.369-58.894,58.896-58.894h3.517c32.527,0,58.894,26.367,58.894,58.894v26.614
	C314.989,286.696,288.622,313.063,256.096,313.063z"/>
<path style="fill:#FED8B2;" d="M256.096,168.662h-1.243v144.403h1.243c32.527,0,58.894-26.367,58.894-58.896v-26.614
	C314.991,195.029,288.622,168.662,256.096,168.662z"/>
<circle style="fill:#59595B;" cx="228.022" cy="254.276" r="5.58"/>
<circle style="fill:#272525;" cx="280.653" cy="254.276" r="5.58"/>
<circle style="fill:#FC6F58;" cx="256.001" cy="284.444" r="21.549"/>
<path style="fill:#F1543F;" d="M256.001,262.896c-0.388,0-0.765,0.038-1.148,0.059v42.982c0.383,0.021,0.76,0.059,1.148,0.059
	c11.902,0,21.549-9.647,21.549-21.549S267.903,262.896,256.001,262.896z"/>
<path style="fill:#C1321F;" d="M256.001,315.475c-9.03,0-16.377-7.347-16.377-16.377c0-9.03,7.347-16.377,16.377-16.377
	c9.03,0,16.377,7.347,16.377,16.377C272.378,308.127,265.031,315.475,256.001,315.475z M256.001,287.892
	c-6.178,0-11.205,5.027-11.205,11.205c0,6.178,5.027,11.205,11.205,11.205c6.178,0,11.205-5.027,11.205-11.205
	C267.206,292.919,262.179,287.892,256.001,287.892z"/>
<path style="fill:#A82116;" d="M256.001,282.721c-0.388,0-0.767,0.031-1.148,0.059v5.172c0.378-0.038,0.76-0.059,1.148-0.059
	c6.178,0,11.205,5.027,11.205,11.205c0,6.178-5.027,11.205-11.205,11.205c-0.388,0-0.771-0.021-1.148-0.059v5.172
	c0.381,0.026,0.76,0.059,1.148,0.059c9.03,0,16.377-7.347,16.377-16.377C272.378,290.068,265.031,282.721,256.001,282.721z"/>
<path style="fill:#C75163;" d="M162.91,494.539C191.763,505.808,223.157,512,256.001,512s64.238-6.192,93.091-17.461V294.078
	L162.91,358.557V494.539z"/>
<path style="fill:#AF4156;" d="M254.853,326.716v185.272c0.383,0.002,0.765,0.014,1.148,0.014c32.844,0,64.238-6.192,93.091-17.461
	V294.078L254.853,326.716z"/>
<polygon style="fill:#FF80AA;" points="162.91,358.557 246.507,329.606 162.91,288.606 "/>
<rect x="274.671" y="182.734" style="fill:#C1321F;" width="17.813" height="17.813"/>
<g>
	<path style="fill:#A82116;" d="M274.678,200.547l-7.902,7.902c-3.656,3.656-9.911,1.067-9.911-4.105v-25.41
		c0-5.172,6.253-7.763,9.911-4.105l7.902,7.902V200.547z"/>
	<path style="fill:#A82116;" d="M292.491,182.734l7.904-7.902c3.656-3.656,9.911-1.067,9.911,4.105v25.41
		c0,5.172-6.253,7.763-9.911,4.105l-7.902-7.904L292.491,182.734z"/>
</g>
<g>
</g>
<g>
</g>
<g>
</g>
<g>
</g>
<g>
</g>
<g>
</g>
<g>
</g>
<g>
</g>
<g>
</g>
<g>
</g>
<g>
</g>
<g>
</g>
<g>
</g>
<g>
</g>
<g>
</g>
</svg>
