<?xml version="1.0" encoding="iso-8859-1"?>
<!-- Generator: Adobe Illustrator 19.0.0, SVG Export Plug-In . SVG Version: 6.00 Build 0)  -->
<svg version="1.1" id="Layer_1" xmlns="http://www.w3.org/2000/svg" xmlns:xlink="http://www.w3.org/1999/xlink" x="0px" y="0px"
	 viewBox="0 0 512 512" style="enable-background:new 0 0 512 512;" xml:space="preserve">
<circle style="fill:#31BAFD;" cx="256" cy="256" r="256"/>
<path style="fill:#2B9ED8;" d="M327.189,501.96c90.526-26.155,160.425-100.923,179.576-194.208L362.477,163.464l-53.322-22.68
	l-18.323,18.323l-53.298-53.298l-49.878-27.913l-37.792,39.321l46.949,46.949l-6.642,200.776L327.189,501.96z"/>
<path style="fill:#FFFFFF;" d="M362.477,163.464l-38.565-38.185c-3.044-3.015-7.956-2.989-10.969,0.053l-38.184,38.565
	c-3.015,3.044-2.991,7.956,0.053,10.969c1.512,1.498,3.484,2.246,5.458,2.246c1.998,0,3.994-0.767,5.511-2.3l24.922-25.171v142.16
	c0,4.284,3.474,7.758,7.758,7.758s7.758-3.474,7.758-7.758V149.397l25.343,25.091c3.044,3.017,7.956,2.991,10.969-0.053
	C365.546,171.391,365.523,166.478,362.477,163.464z"/>
<path style="fill:#E9EFF4;" d="M362.477,163.464l-38.565-38.185c-1.539-1.524-3.555-2.265-5.563-2.239v176.511
	c0.038,0,0.072,0.01,0.11,0.01c4.284,0,7.758-3.474,7.758-7.758V149.397l25.343,25.091c3.044,3.017,7.956,2.991,10.969-0.053
	C365.546,171.391,365.523,166.478,362.477,163.464z"/>
<path style="fill:#FFFFFF;" d="M237.534,105.812l-38.567-38.185c-3.044-3.013-7.956-2.988-10.969,0.055l-38.185,38.565
	c-3.015,3.044-2.991,7.956,0.053,10.969c1.512,1.498,3.484,2.246,5.458,2.246c1.998,0,3.994-0.767,5.511-2.3l24.923-25.169
	l-0.007,199.811c0,4.284,3.474,7.758,7.758,7.758s7.758-3.474,7.758-7.758l0.007-200.061l25.345,25.093
	c3.044,3.013,7.954,2.988,10.971-0.055C240.602,113.74,240.578,108.827,237.534,105.812z"/>
<path style="fill:#E9EFF4;" d="M237.534,105.812l-38.567-38.185c-1.438-1.424-3.294-2.145-5.168-2.214v234.12
	c4.148-0.155,7.468-3.543,7.468-7.728l0.007-200.061l25.345,25.093c3.044,3.013,7.954,2.988,10.971-0.055
	C240.602,113.74,240.578,108.827,237.534,105.812z"/>
<circle style="fill:#FFC61B;" cx="255.983" cy="305.062" r="88.981"/>
<path style="fill:#EAA22F;" d="M255.984,216.078c-0.043,0-0.084,0.003-0.126,0.003v177.955c0.043,0,0.084,0.003,0.126,0.003
	c49.143,0,88.981-39.838,88.981-88.981S305.126,216.078,255.984,216.078z"/>
<path style="fill:#B97850;" d="M286.275,287.72c3.808,0,6.896-3.088,6.896-6.896v-4.711c0-14.281-13.502-25.921-30.291-26.374v-1.8
	c0-3.808-3.088-6.896-6.896-6.896s-6.896,3.088-6.896,6.896v1.8c-16.791,0.453-30.291,12.093-30.291,26.374v9.425
	c0,14.279,13.502,25.919,30.291,26.372v34.68c-9.04-0.393-16.499-5.987-16.499-12.586v-4.711c0-3.808-3.088-6.896-6.896-6.896
	s-6.896,3.088-6.896,6.896v4.711c0,14.279,13.502,25.919,30.291,26.372v1.801c0,3.808,3.088,6.896,6.896,6.896
	s6.896-3.088,6.896-6.896v-1.801c16.791-0.453,30.291-12.093,30.291-26.372v-9.425c0-14.281-13.502-25.921-30.291-26.374v-34.68
	c9.04,0.393,16.5,5.989,16.5,12.588v4.711C279.38,284.632,282.467,287.72,286.275,287.72z M232.588,285.537v-9.425
	c0-6.599,7.459-12.197,16.499-12.588v34.599C240.049,297.732,232.588,292.137,232.588,285.537z M279.38,324.579v9.425
	c0,6.599-7.459,12.195-16.5,12.586v-34.599C271.92,312.384,279.38,317.98,279.38,324.579z"/>
<path style="fill:#9A4F03;" d="M286.275,287.72c3.808,0,6.896-3.088,6.896-6.896v-4.711c0-14.281-13.502-25.921-30.291-26.374v-1.8
	c0-3.808-3.088-6.896-6.896-6.896c-0.043,0-0.083,0.012-0.126,0.012v128.007c0.043,0,0.083,0.012,0.126,0.012
	c3.808,0,6.896-3.088,6.896-6.896v-1.801c16.791-0.453,30.291-12.093,30.291-26.372v-9.425c0-14.281-13.502-25.921-30.291-26.374
	v-34.68c9.04,0.393,16.5,5.989,16.5,12.588v4.711C279.38,284.632,282.467,287.72,286.275,287.72z M279.38,324.579v9.425
	c0,6.599-7.459,12.195-16.5,12.586v-34.599C271.92,312.384,279.38,317.98,279.38,324.579z"/>
<g>
</g>
<g>
</g>
<g>
</g>
<g>
</g>
<g>
</g>
<g>
</g>
<g>
</g>
<g>
</g>
<g>
</g>
<g>
</g>
<g>
</g>
<g>
</g>
<g>
</g>
<g>
</g>
<g>
</g>
</svg>
