<?xml version="1.0" encoding="iso-8859-1"?>
<!-- Generator: Adobe Illustrator 19.0.0, SVG Export Plug-In . SVG Version: 6.00 Build 0)  -->
<svg version="1.1" id="Layer_1" xmlns="http://www.w3.org/2000/svg" xmlns:xlink="http://www.w3.org/1999/xlink" x="0px" y="0px"
	 viewBox="0 0 512 512" style="enable-background:new 0 0 512 512;" xml:space="preserve">
<circle style="fill:#B5F1F4;" cx="256" cy="256" r="256"/>
<path style="fill:#84DBFF;" d="M511.552,270.998l-125.49-125.49l-15.251,35.671L260.958,70.215l-1.474,74.273L85.333,256
	l122.111,123.978l-0.359,54.375l75.426,76.288C406.537,497.879,504.294,396.576,511.552,270.998z"/>
<path style="fill:#FED8B2;" d="M360.277,289.23H235.408c-5.592,0-10.124,4.532-10.124,10.124l0,0
	c0,5.592,4.532,10.125,10.124,10.125c-5.592,0-10.124,4.532-10.124,10.125c0,5.592,4.532,10.124,10.124,10.124
	c-5.592,0-10.124,4.532-10.124,10.125l0,0c0,5.592,4.532,10.124,10.124,10.124c-5.592,0-10.124,4.532-10.124,10.125l0,0
	c0,5.592,4.532,10.125,10.124,10.125h75.645c8.547,0,15.477-6.93,15.477-15.477h33.749L360.277,289.23z"/>
<path style="fill:#FD8469;" d="M230.141,443.906c-18.061,0-32.754-14.693-32.754-32.754v-25.859c0-3.808,3.088-6.896,6.896-6.896
	s6.896,3.087,6.896,6.896v25.859c0,10.455,8.507,18.963,18.963,18.963s18.963-8.507,18.963-18.963V74.99
	c0-3.808,3.088-6.896,6.896-6.896c3.808,0,6.896,3.088,6.896,6.896v336.162C262.896,429.213,248.203,443.906,230.141,443.906z"/>
<path style="fill:#FC6F58;" d="M262.896,74.99c0-3.808-3.088-6.896-6.896-6.896c-0.197,0-0.381,0.041-0.574,0.059v363.796
	c4.665-5.66,7.47-12.907,7.47-20.797V74.99z"/>
<path style="fill:#324A5E;" d="M85.333,256h170.093V85.34C161.435,85.651,85.333,161.935,85.333,256z"/>
<path style="fill:#2B3B4E;" d="M256,85.333c-0.191,0-0.383,0.007-0.574,0.007V256h171.241
	C426.667,161.744,350.258,85.333,256,85.333z"/>
<path style="fill:#476172;" d="M158.599,256h96.827V85.345C201.899,85.888,158.599,162.08,158.599,256z"/>
<g>
	<path style="fill:#324A5E;" d="M256,85.333c-0.191,0-0.383,0.01-0.574,0.012V256h97.975C353.401,161.744,309.794,85.333,256,85.333
		z"/>
	<path style="fill:#324A5E;" d="M227.556,256c0-94.256,12.734-170.667,28.444-170.667s28.444,76.41,28.444,170.667H227.556z"/>
</g>
<path style="fill:#2B3B4E;" d="M256,85.333c-0.191,0-0.383,0.021-0.574,0.043V256h29.018C284.444,161.744,271.71,85.333,256,85.333z
	"/>
<path style="fill:#FCC99F;" d="M341.828,315.385h-37.935c-5.889,0-10.662-4.773-10.662-10.662l0,0h-31.987
	c-5.889,0-10.662-4.773-10.662-10.662l0,0c0-5.889,4.773-10.662,10.662-10.662h95.963L341.828,315.385z"/>
<path style="fill:#935635;" d="M510.643,282.479H340.028v87.747h145.117C498.579,343.328,507.43,313.742,510.643,282.479z"/>
<g>
</g>
<g>
</g>
<g>
</g>
<g>
</g>
<g>
</g>
<g>
</g>
<g>
</g>
<g>
</g>
<g>
</g>
<g>
</g>
<g>
</g>
<g>
</g>
<g>
</g>
<g>
</g>
<g>
</g>
</svg>
