<?xml version="1.0" encoding="iso-8859-1"?>
<!-- Generator: Adobe Illustrator 19.0.0, SVG Export Plug-In . SVG Version: 6.00 Build 0)  -->
<svg version="1.1" id="Layer_1" xmlns="http://www.w3.org/2000/svg" xmlns:xlink="http://www.w3.org/1999/xlink" x="0px" y="0px"
	 viewBox="0 0 512.003 512.003" style="enable-background:new 0 0 512.003 512.003;" xml:space="preserve">
<circle style="fill:#E6F3FF;" cx="256.002" cy="256" r="256"/>
<path style="fill:#CFDBE6;" d="M511.541,271.194l-67.912-67.912l-11.214,29.156l-158.46,13.217l-42.374-42.374l-32.947,30.88
	l-56.151,6.463l-87.193,7.878l49.233,49.233l-9.649,4.37l22.697,22.697l-2.379,1.876l67.067,67.067l-15.126,58.408l57.989,57.989
	c10.124,1.217,20.427,1.86,30.879,1.86C392.283,512,503.677,405.504,511.541,271.194z"/>
<path style="fill:#FED8B2;" d="M165.34,343.202v-16.141h-29.112v16.141c0,1.288-1.045,2.332-2.332,2.332h-20.059v55.701h73.895
	v-55.701h-20.059C166.383,345.534,165.34,344.492,165.34,343.202z"/>
<path style="fill:#EABE96;" d="M187.732,345.534h-20.059c-1.288,0-2.332-1.045-2.332-2.332v-16.141h-15.222v74.174h37.614V345.534z"
	/>
<circle style="fill:#FED8B2;" cx="102.402" cy="293.236" r="11.633"/>
<circle style="fill:#EABE96;" cx="196.682" cy="293.236" r="11.633"/>
<path style="fill:#F4E3C3;" d="M150.856,341.687h-2.622c-24.248,0-43.904-19.656-43.904-43.904v-40.086
	c0-24.248,19.656-43.904,43.904-43.904h2.622c24.248,0,43.904,19.656,43.904,43.904v40.086
	C194.76,322.031,175.102,341.687,150.856,341.687z"/>
<path style="fill:#FED8B2;" d="M150.856,213.792h-0.738v127.895h0.738c24.248,0,43.904-19.656,43.904-43.904v-40.086
	C194.76,233.45,175.102,213.792,150.856,213.792z"/>
<circle style="fill:#59595B;" cx="128.226" cy="288.082" r="4.522"/>
<circle style="fill:#272525;" cx="170.858" cy="288.082" r="4.522"/>
<path style="fill:#31BAFD;" d="M190.904,345.534h-15.488c0,13.603-24.631,26.814-24.631,26.814s-24.631-13.21-24.631-26.814h-15.488
	c-18.653,0-33.775,15.122-33.775,33.775v59.571c39.148,38.347,90.548,64.226,147.79,71.209V379.309
	C224.678,360.657,209.558,345.534,190.904,345.534z"/>
<path style="fill:#2B9ED8;" d="M224.678,379.309c0-18.653-15.122-33.775-33.775-33.775h-15.488
	c0,13.603-24.631,26.814-24.631,26.814s-0.622-0.334-1.664-0.946v117.265c23.486,10.809,48.887,18.168,75.559,21.423V379.309
	H224.678z"/>
<path style="fill:#FD8469;" d="M149.544,325.132c-8.147,0-14.774-6.627-14.774-14.774c0-1.381,1.119-2.5,2.5-2.5
	c1.381,0,2.5,1.119,2.5,2.5c0,5.389,4.384,9.773,9.773,9.773c5.389,0,9.773-4.384,9.773-9.773c0-1.381,1.119-2.5,2.5-2.5
	s2.5,1.119,2.5,2.5C164.318,318.505,157.691,325.132,149.544,325.132z"/>
<g>
	<path style="fill:#FC6F58;" d="M164.318,310.358c0-1.381-1.119-2.5-2.5-2.5c-1.381,0-2.5,1.119-2.5,2.5
		c0,5.194-4.079,9.444-9.199,9.743v5.001C157.998,324.798,164.318,318.312,164.318,310.358z"/>
	<path style="fill:#FC6F58;" d="M115.193,242.971c0,0-2.205-27.988-45.209-39.688l-14.695,45.223L115.193,242.971z"/>
</g>
<g>
	<path style="fill:#F1543F;" d="M186.373,242.971c0,0,2.205-27.988,45.209-39.688l14.695,45.223L186.373,242.971z"/>
	<path style="fill:#F1543F;" d="M190.454,277.873v15.369h8.182V268.14v-12.162c0-10.18-3.201-19.606-8.637-27.35
		c-8.623-12.283-22.883-20.318-39.031-20.318h-2.846c-26.326,0-47.668,21.342-47.668,47.668v3.686v33.577h6.997v-15.369h83.003
		V277.873z"/>
</g>
<path style="fill:#FED8B2;" d="M377.385,343.202v-16.141h-29.11v16.141c0,1.288-1.045,2.332-2.332,2.332h-20.059v55.701h73.895
	v-55.701H379.72C378.43,345.534,377.385,344.492,377.385,343.202z"/>
<path style="fill:#EABE96;" d="M399.779,345.534H379.72c-1.288,0-2.332-1.045-2.332-2.332v-16.141h-15.222v74.174h37.614V345.534z"
	/>
<circle style="fill:#FED8B2;" cx="314.442" cy="293.236" r="11.633"/>
<circle style="fill:#EABE96;" cx="408.74" cy="293.236" r="11.633"/>
<path style="fill:#F4E3C3;" d="M362.901,341.687h-2.622c-24.248,0-43.904-19.656-43.904-43.904v-40.086
	c0-24.248,19.656-43.904,43.904-43.904h2.622c24.248,0,43.904,19.656,43.904,43.904v40.086
	C406.806,322.031,387.15,341.687,362.901,341.687z"/>
<path style="fill:#FED8B2;" d="M362.901,213.792h-0.738v127.895h0.738c24.248,0,43.904-19.656,43.904-43.904v-40.086
	C406.806,233.45,387.15,213.792,362.901,213.792z"/>
<circle style="fill:#59595B;" cx="340.266" cy="288.082" r="4.522"/>
<circle style="fill:#272525;" cx="382.916" cy="288.082" r="4.522"/>
<path style="fill:#31BAFD;" d="M402.951,345.534h-15.488c0,13.603-24.631,26.814-24.631,26.814s-24.631-13.21-24.631-26.814h-15.488
	c-18.654,0-33.775,15.122-33.775,33.775v130.588c57.38-7.37,108.811-33.735,147.79-72.59v-57.999
	C436.726,360.657,421.605,345.534,402.951,345.534z"/>
<path style="fill:#2B9ED8;" d="M436.726,379.309c0-18.653-15.122-33.775-33.775-33.775h-15.488
	c0,13.603-24.631,26.814-24.631,26.814s-0.191-0.103-0.521-0.288v116.874c27.841-12.728,53.01-30.287,74.416-51.626v-57.999H436.726
	z"/>
<path style="fill:#FD8469;" d="M361.591,325.132c-8.147,0-14.774-6.627-14.774-14.774c0-1.381,1.119-2.5,2.5-2.5
	c1.381,0,2.5,1.119,2.5,2.5c0,5.389,4.384,9.773,9.773,9.773c5.389,0,9.773-4.384,9.773-9.773c0-1.381,1.119-2.5,2.5-2.5
	c1.381,0,2.5,1.119,2.5,2.5C376.363,318.505,369.736,325.132,361.591,325.132z"/>
<g>
	<path style="fill:#FC6F58;" d="M376.363,310.358c0-1.381-1.119-2.5-2.5-2.5c-1.381,0-2.5,1.119-2.5,2.5
		c0,5.194-4.079,9.444-9.199,9.743v5.001C370.043,324.798,376.363,318.312,376.363,310.358z"/>
	<path style="fill:#FC6F58;" d="M327.24,242.971c0,0-2.205-27.988-45.209-39.688l-14.695,45.223L327.24,242.971z"/>
</g>
<g>
	<path style="fill:#F1543F;" d="M398.42,242.971c0,0,2.205-27.988,45.209-39.688l14.693,45.223L398.42,242.971z"/>
	<path style="fill:#F1543F;" d="M402.501,277.873v15.369h8.182V268.14v-12.162c0-10.18-3.201-19.606-8.637-27.35
		c-8.623-12.283-22.883-20.318-39.031-20.318h-2.846c-26.326,0-47.668,21.342-47.668,47.668v3.686v33.577h6.997v-15.369h83.003
		V277.873z"/>
</g>
<g>
	<path style="fill:#D83E20;" d="M189.999,228.63c-8.623-12.283-22.883-20.318-39.031-20.318h-1.848v69.561h41.334v15.369h8.182
		V268.14v-12.16C198.635,245.8,195.434,236.373,189.999,228.63z"/>
	<path style="fill:#D83E20;" d="M402.044,228.63c-8.623-12.283-22.883-20.318-39.031-20.318h-0.705v69.561h40.191v15.369h8.182
		V268.14v-12.16C410.683,245.8,407.481,236.373,402.044,228.63z"/>
</g>
<g>
</g>
<g>
</g>
<g>
</g>
<g>
</g>
<g>
</g>
<g>
</g>
<g>
</g>
<g>
</g>
<g>
</g>
<g>
</g>
<g>
</g>
<g>
</g>
<g>
</g>
<g>
</g>
<g>
</g>
</svg>
