<?xml version="1.0" encoding="iso-8859-1"?>
<!-- Generator: Adobe Illustrator 19.0.0, SVG Export Plug-In . SVG Version: 6.00 Build 0)  -->
<svg version="1.1" id="Capa_1" xmlns="http://www.w3.org/2000/svg" xmlns:xlink="http://www.w3.org/1999/xlink" x="0px" y="0px"
	 viewBox="0 0 512 512" style="enable-background:new 0 0 512 512;" xml:space="preserve">
<circle style="fill:#FF3501;" cx="256" cy="256" r="256"/>
<path style="fill:#C70024;" d="M512,256c0-9.375-0.519-18.628-1.5-27.741L362.017,79.776l-0.026,0.026
	c-12.446-14.447-30.86-23.607-51.426-23.607l0,0l0,0c-37.483,0-67.868,30.386-67.868,67.868v25.79v2.715v100.445l0,0l35.88,35.88
	c0.266,2.844,1.476,5.418,3.306,7.423l-0.002,0.002l0.042,0.042c0.242,0.262,0.492,0.513,0.755,0.755l3.407,3.407H267.13v0.049
	l-60.909-60.909h-16.688h-33.375v16.688l0,0l10.788,10.788l-55.976,55.977l0,0l0,0l66.452,66.45h-43.857v44.522l73.156,73.156
	C222.669,510.353,239.141,512,256,512C397.385,512,512,397.384,512,256z"/>
<path style="fill:#1D1D1F;" d="M310.567,56.195L310.567,56.195c-37.483,0-67.869,30.386-67.869,67.869v128.951h135.737V124.064
	C378.435,86.581,348.049,56.195,310.567,56.195z"/>
<path d="M310.567,56.195L310.567,56.195v196.818h67.868V124.064C378.435,86.581,348.049,56.195,310.567,56.195z"/>
<path style="fill:#FFDAAA;" d="M278.517,236.424v38.459v12.82c0,7.051,5.769,12.82,12.82,12.82s12.82-5.769,12.82-12.82v-12.82
	h12.82v12.82c0,7.051,5.769,12.82,12.82,12.82s12.82-5.769,12.82-12.82v-12.82v-38.459L278.517,236.424L278.517,236.424z"/>
<path style="fill:#FFC477;" d="M310.566,236.424v38.459h6.41v12.82c0,7.051,5.769,12.82,12.82,12.82s12.82-5.769,12.82-12.82v-12.82
	v-38.459L310.566,236.424L310.566,236.424z"/>
<g>
	<path style="fill:#2D2D30;" d="M316.976,286.948v0.754c0,7.051,5.769,12.82,12.82,12.82s12.82-5.769,12.82-12.82v-0.754H316.976z"
		/>
	<path style="fill:#2D2D30;" d="M278.517,286.948v0.754c0,7.051,5.769,12.82,12.82,12.82s12.82-5.769,12.82-12.82v-0.754H278.517z"
		/>
	<rect x="278.517" y="245.549" style="fill:#2D2D30;" width="64.1" height="29.334"/>
</g>
<rect x="310.561" y="245.549" width="32.049" height="29.334"/>
<path style="fill:#FFDAAA;" d="M268.902,262.063L268.902,262.063c-5.288,0-9.614-4.326-9.614-9.614v-12.82h19.229v12.82
	C278.517,257.736,274.19,262.063,268.902,262.063z"/>
<path style="fill:#FFC477;" d="M352.23,262.063L352.23,262.063c-5.288,0-9.614-4.326-9.614-9.614v-12.82h19.229v12.82
	C361.845,257.736,357.518,262.063,352.23,262.063z"/>
<path style="fill:#FFFFFF;" d="M361.845,249.243H259.288v-16.865c0-22.546,18.277-40.823,40.823-40.823h20.911
	c22.546,0,40.823,18.277,40.823,40.823V249.243z"/>
<path style="fill:#E1E3FA;" d="M321.022,191.555h-10.456v57.688h51.278v-16.865C361.845,209.832,343.568,191.555,321.022,191.555z"
	/>
<rect x="286.52" y="185.144" style="fill:#C4C8F5;" width="47.508" height="27.147"/>
<polygon style="fill:#FFC477;" points="330.927,182.43 310.566,223.152 290.206,182.43 "/>
<polygon style="fill:#FFB655;" points="310.566,182.43 310.566,223.152 330.927,182.43 "/>
<path style="fill:#FFC477;" d="M269.845,164.785h-14.931c-6.719,0-12.217-5.497-12.217-12.217v-2.715
	c0-6.719,5.497-12.217,12.217-12.217h14.931V164.785z"/>
<path style="fill:#FFB655;" d="M351.288,164.785h14.931c6.719,0,12.217-5.497,12.217-12.217v-2.715
	c0-6.719-5.497-12.217-12.217-12.217h-14.931V164.785z"/>
<path style="fill:#FFDAAA;" d="M333.083,116.461c-2.156-1.617-4.191-3.321-6.107-5.093c-19.359,12.571-42.136,19.483-65.725,19.483
	h-11.389c-0.246,2.228-0.377,4.492-0.377,6.787c0,33.734,27.348,61.082,61.082,61.082s61.082-27.347,61.082-61.082
	c0-2.314-0.134-4.597-0.384-6.844C358.757,130.287,345.163,125.521,333.083,116.461z"/>
<path style="fill:#FFC477;" d="M371.265,130.793c-12.506-0.505-26.102-5.271-38.181-14.332c-2.156-1.617-4.191-3.321-6.107-5.093
	c-5.236,3.4-10.724,6.382-16.41,8.93v78.421c33.734,0,61.082-27.347,61.082-61.082C371.647,135.323,371.515,133.04,371.265,130.793z
	"/>
<circle cx="278.606" cy="146.399" r="8.766"/>
<circle cx="342.517" cy="146.399" r="8.766"/>
<path style="fill:#F072AE;" d="M310.566,185.146c11.245,0,20.361-9.116,20.361-20.361h-40.721
	C290.206,176.03,299.322,185.146,310.566,185.146z"/>
<path style="fill:#ED539D;" d="M310.566,164.785v20.361c11.245,0,20.361-9.116,20.361-20.361H310.566z"/>
<polygon style="fill:#FFFFFF;" points="267.13,300.522 267.13,345.043 200.348,345.043 200.348,389.565 133.565,389.565 
	133.565,434.087 356.174,434.087 356.174,345.043 356.174,300.522 "/>
<polygon style="fill:#FFDA44;" points="206.221,289.724 206.221,256.348 206.221,239.662 189.533,239.662 156.159,239.661 
	156.159,256.348 177.734,256.348 110.969,323.113 122.77,334.913 189.533,268.149 189.533,289.724 "/>
<rect x="267.13" y="300.522" style="fill:#FFFFFF;" width="89.043" height="133.565"/>
<rect x="200.348" y="345.043" style="fill:#D8D7DA;" width="155.826" height="89.043"/>
<rect x="133.565" y="389.565" style="fill:#FFFFFF;" width="222.609" height="44.522"/>
<g>
</g>
<g>
</g>
<g>
</g>
<g>
</g>
<g>
</g>
<g>
</g>
<g>
</g>
<g>
</g>
<g>
</g>
<g>
</g>
<g>
</g>
<g>
</g>
<g>
</g>
<g>
</g>
<g>
</g>
</svg>
