<?xml version="1.0" encoding="iso-8859-1"?>
<!-- Generator: Adobe Illustrator 19.0.0, SVG Export Plug-In . SVG Version: 6.00 Build 0)  -->
<svg version="1.1" id="Layer_1" xmlns="http://www.w3.org/2000/svg" xmlns:xlink="http://www.w3.org/1999/xlink" x="0px" y="0px"
	 viewBox="0 0 512.002 512.002" style="enable-background:new 0 0 512.002 512.002;" xml:space="preserve">
<circle style="fill:#935635;" cx="256.001" cy="256" r="256"/>
<path style="fill:#804000;" d="M238.476,387.305l108.166,108.167c83.951-31.794,146.811-106.451,161.876-197.27L352.54,142.222
	L238.476,387.305z"/>
<path style="fill:#F9E382;" d="M256.001,512c36.624,0,71.442-7.708,102.946-21.561l-52.748-184.618
	c-4.237-14.829-17.792-25.054-33.214-25.054h-33.968c-15.424,0-28.977,10.224-33.214,25.054l-52.75,184.617
	C184.557,504.292,219.376,512,256.001,512z"/>
<path style="fill:#F2DA75;" d="M358.947,490.439l-52.748-184.618c-4.237-14.829-17.792-25.054-33.214-25.054h-18.132v231.219
	c0.384,0.002,0.765,0.016,1.148,0.016C292.625,512,327.443,504.292,358.947,490.439z"/>
<path style="fill:#FFD15D;" d="M300.231,177.095c-13.253-6.847-28.284-10.738-44.23-10.738s-30.977,3.891-44.23,10.738
	l-52.308-34.873v120.673c0,53.317,43.222,96.539,96.539,96.539s96.539-43.222,96.539-96.539V142.222L300.231,177.095z"/>
<path style="fill:#F9B54C;" d="M300.231,177.095c-13.253-6.847-28.284-10.738-44.23-10.738c-0.386,0-0.764,0.031-1.148,0.034
	v193.014c0.384,0.005,0.764,0.029,1.148,0.029c53.317,0,96.539-43.222,96.539-96.539V142.222L300.231,177.095z"/>
<circle style="fill:#324A5E;" cx="212.645" cy="275.153" r="7.849"/>
<circle style="fill:#2B3B4E;" cx="299.357" cy="275.153" r="7.849"/>
<path style="fill:#324A5E;" d="M283.085,316.318c0,6.765-5.503,12.267-12.267,12.267c-4.365,0-8.299-2.298-10.509-6.025v-23.847
	c3.768-2.343,8.64-6.215,8.64-10.604c0-7.152-5.798-5.887-12.95-5.887c-7.152,0-12.95-1.265-12.95,5.887
	c0,4.389,4.872,8.261,8.64,10.604v23.847c-2.208,3.725-6.144,6.025-10.509,6.025c-6.765,0-12.267-5.503-12.267-12.267h-8.62
	c0,11.517,9.369,20.887,20.887,20.887c5.687,0,10.967-2.265,14.819-6.166c3.851,3.901,9.13,6.166,14.819,6.166
	c11.517,0,20.887-9.369,20.887-20.887L283.085,316.318L283.085,316.318z"/>
<path style="fill:#2B3B4E;" d="M283.085,316.318c0,6.765-5.503,12.267-12.267,12.267c-4.365,0-8.299-2.298-10.509-6.025v-23.847
	c3.768-2.343,8.64-6.215,8.64-10.604c0-7.152-5.798-5.887-12.95-5.887c-0.388,0-0.769-0.005-1.148-0.01v49.879
	c0.391-0.341,0.783-0.683,1.148-1.055c3.851,3.901,9.13,6.166,14.819,6.166c11.517,0,20.887-9.369,20.887-20.887h-8.62V316.318z"/>
<path style="fill:#F9B54C;" d="M270.223,234.882v-67.436c-4.644-0.69-9.385-1.09-14.222-1.09c-4.837,0-9.578,0.4-14.222,1.09v67.436
	c0,7.854,6.368,14.222,14.222,14.222C263.855,249.104,270.223,242.736,270.223,234.882z"/>
<g>
	<path style="fill:#F4A200;" d="M256.001,166.357c-0.384,0-0.765,0.019-1.148,0.022v82.666c0.379,0.031,0.76,0.059,1.148,0.059
		c7.854,0,14.222-6.368,14.222-14.222v-67.436C265.579,166.755,260.838,166.357,256.001,166.357z"/>
	<path style="fill:#F4A200;" d="M285.738,219.798c5.475,0,9.912-4.437,9.912-9.912v-34.992c-6.278-2.836-12.921-4.998-19.825-6.446
		v41.438C275.826,215.361,280.263,219.798,285.738,219.798z"/>
</g>
<path style="fill:#F9B54C;" d="M216.351,174.894v34.992c0,5.475,4.437,9.912,9.912,9.912s9.912-4.437,9.912-9.912v-41.438
	C229.27,169.896,222.629,172.058,216.351,174.894z"/>
<g>
</g>
<g>
</g>
<g>
</g>
<g>
</g>
<g>
</g>
<g>
</g>
<g>
</g>
<g>
</g>
<g>
</g>
<g>
</g>
<g>
</g>
<g>
</g>
<g>
</g>
<g>
</g>
<g>
</g>
</svg>
