<?xml version="1.0" encoding="iso-8859-1"?>
<!-- Generator: Adobe Illustrator 19.0.0, SVG Export Plug-In . SVG Version: 6.00 Build 0)  -->
<svg version="1.1" id="Layer_1" xmlns="http://www.w3.org/2000/svg" xmlns:xlink="http://www.w3.org/1999/xlink" x="0px" y="0px"
	 viewBox="0 0 512 512" style="enable-background:new 0 0 512 512;" xml:space="preserve">
<circle style="fill:#B5F1F4;" cx="256" cy="256" r="256"/>
<path style="fill:#84DBFF;" d="M512,256L398.222,142.222L206.245,310.253l-92.467,59.525L256,512C397.384,512,512,397.384,512,256z"
	/>
<rect x="113.778" y="142.222" style="fill:#FFFFFF;" width="284.444" height="227.556"/>
<rect x="256.293" y="142.222" style="fill:#E9EFF4;" width="141.929" height="227.556"/>
<path style="fill:#F4E3C3;" d="M361.579,355.902H150.421c-10.659,0-19.299-8.64-19.299-19.299V175.397
	c0-10.659,8.64-19.299,19.299-19.299h211.156c10.659,0,19.299,8.64,19.299,19.299v161.206
	C380.878,347.262,372.238,355.902,361.579,355.902z"/>
<path style="fill:#FED8B2;" d="M361.579,156.098H256.288v199.804h105.291c10.659,0,19.299-8.64,19.299-19.299V175.397
	C380.878,164.738,372.238,156.098,361.579,156.098z"/>
<polygon style="fill:#00A49A;" points="349.091,396.283 328.404,376.17 307.717,396.283 307.717,335.946 349.091,335.946 "/>
<polygon style="fill:#2C9984;" points="349.091,335.946 328.404,335.946 328.404,376.172 349.091,396.283 "/>
<circle style="fill:#F9B54C;" cx="328.404" cy="323.439" r="28.444"/>
<path style="fill:#F4A200;" d="M356.848,323.448c0-15.71-12.734-28.444-28.444-28.444v56.889
	C344.114,351.892,356.848,339.158,356.848,323.448z"/>
<g>
	<rect x="142.222" y="210.989" style="fill:#324A5E;" width="227.556" height="4.198"/>
	<rect x="142.222" y="234.072" style="fill:#324A5E;" width="227.556" height="4.198"/>
	<rect x="142.222" y="257.155" style="fill:#324A5E;" width="227.556" height="4.198"/>
	<rect x="142.222" y="280.238" style="fill:#324A5E;" width="85.333" height="4.198"/>
	<rect x="213.333" y="187.906" style="fill:#324A5E;" width="85.333" height="4.198"/>
</g>
<g>
	<rect x="256.293" y="210.989" style="fill:#2B3B4E;" width="113.49" height="4.198"/>
	<rect x="256.293" y="234.072" style="fill:#2B3B4E;" width="113.49" height="4.198"/>
	<rect x="256.293" y="257.155" style="fill:#2B3B4E;" width="113.49" height="4.198"/>
	<rect x="256.293" y="187.906" style="fill:#2B3B4E;" width="42.379" height="4.198"/>
</g>
<g>
</g>
<g>
</g>
<g>
</g>
<g>
</g>
<g>
</g>
<g>
</g>
<g>
</g>
<g>
</g>
<g>
</g>
<g>
</g>
<g>
</g>
<g>
</g>
<g>
</g>
<g>
</g>
<g>
</g>
</svg>
