<svg height="512pt" viewBox="0 0 512 512" width="512pt" xmlns="http://www.w3.org/2000/svg"><path d="m512 256c0 141.386719-114.613281 256-256 256s-256-114.613281-256-256 114.613281-256 256-256 256 114.613281 256 256zm0 0" fill="#555a66"/><path d="m504.582031 317.34375-214.027343-214.03125-5.539063 23.414062-35.015625-35.015624-61.417969 122.734374-22.746093-22.746093-54.074219 105.871093 57.75 199.4375c27.019531 9.695313 56.132812 14.992188 86.488281 14.992188 120.238281 0 221.097656-82.898438 248.582031-194.65625zm0 0" fill="#333940"/><path d="m399.167969 144.222656-56.003907-56.003906-31.140624 25.980469 58.171874 58.171875-2.046874 2.078125 137.664062 137.667969c4.042969-18.0625 6.1875-36.839844 6.1875-56.117188 0-.964844-.027344-1.921875-.035156-2.882812l-112.449219-112.449219zm0 0" fill="#333940"/><path d="m360.792969 156.929688 38.722656-16.265626 7.359375 17.519532-38.722656 16.265625zm0 0" fill="#ffe000"/><path d="m364.234375 165.125 3.914063 9.324219 38.722656-16.261719-3.699219-8.808594zm0 0" fill="#ffc200"/><path d="m312.015625 114.203125 13.550781-33.167969 17.589844 7.1875-13.550781 33.167969zm0 0" fill="#ffe000"/><path d="m366.511719 244.003906 7.1875-17.589844 33.164062 13.546876-7.1875 17.59375zm0 0" fill="#ffc200"/><path d="m329.421875 187.722656c-7.050781-4.167968-16.148437-1.832031-20.316406 5.222656l-44.523438 75.355469-8.667969-5.125 62.246094-105.347656c4.167969-7.054687 1.828125-16.148437-5.226562-20.316406l-.917969-.542969c-7.050781-4.167969-16.148437-1.828125-20.316406 5.226562l-56.828125 96.175782-8.667969-5.121094 66.3125-112.230469c4.167969-7.054687 1.828125-16.152343-5.222656-20.320312l-.917969-.539063c-7.054688-4.167968-16.148438-1.828125-20.316406 5.226563l-61.980469 104.894531-8.671875-5.125 56.566406-95.730469c4.167969-7.054687 1.828125-16.152343-5.226562-20.320312l-.03125-.019531c-7.042969-4.160157-16.117188-1.84375-20.296875 5.1875-12.769531 21.492187-53.476563 90.207031-53.3125 90.308593 10.199219 6.109375 11.949219 23.941407 6.449219 34.480469-.214844.414062-.445313.824219-.683594 1.230469l-24.078125 40.75c-.011719.019531-.003907.039062.011719.054687 23.234374 19.125 30.875 51.71875 18.84375 79.148438l-10.546876-6.355469c9.546876-23.582031 1.679688-51.410156-19.808593-66.207031l-4.652344-3.203125c-.019531-.015625-.027344-.039063-.015625-.058594l29.394531-49.746094c5.46875-9.253906 2.472657-21.191406-6.71875-26.765625-9.34375-5.667968-21.519531-2.609375-27.078125 6.796875l-56.382812 95.425781c-9.867188 16.699219-8.34375 37.011719 2.210937 51.898438.007813.011719.007813.03125 0 .042969 0 0-14.65625 24.8125-34.90625 59.105469 23.867188 34.601562 56.023438 63.042968 93.613281 82.445312 26.757813-45.261719 48.109376-81.390625 48.109376-81.390625.007812-.011719.023437-.019531.039062-.019531 17.886719.378906 35.480469-7.890625 46.441406-23.179688l.199219.117188 101.105469-171.117188c4.164062-7.050781 1.824218-16.148437-5.230469-20.3125zm0 0" fill="#ffcdbe"/><path d="m163.101562 333.890625c9.542969-23.582031 1.675782-51.40625-19.8125-66.207031l-4.652343-3.203125c-.019531-.011719-.023438-.039063-.011719-.058594l29.390625-49.746094c5.46875-9.253906 2.472656-21.191406-6.71875-26.765625-9.34375-5.667968-21.515625-2.609375-27.074219 6.800782l-56.382812 95.425781c-9.867188 16.695312-8.347656 37.011719 2.207031 51.894531.011719.015625.011719.03125.003906.042969 0 0-14.65625 24.816406-34.910156 59.105469 13.398437 19.421874 29.410156 36.902343 47.523437 51.933593l74.460938-116.796875zm0 0" fill="#ffcdbe"/><path d="m329.421875 187.722656c-7.050781-4.167968-16.148437-1.832031-20.316406 5.222656l-44.523438 75.355469-8.667969-5.125 62.246094-105.347656c4.167969-7.054687 1.828125-16.148437-5.226562-20.316406l-.917969-.542969c-7.050781-4.167969-16.148437-1.828125-20.316406 5.226562l-56.828125 96.175782-3.851563-2.273438-51.875 81.367188c-.480469 7.726562-2.277343 15.441406-5.5 22.78125l-6.519531-3.929688-74.460938 116.796875c14.160157 11.75 29.601563 22 46.09375 30.511719 26.753907-45.261719 48.109376-81.386719 48.109376-81.386719.007812-.015625.023437-.023437.035156-.023437 17.890625.382812 35.484375-7.886719 46.445312-23.179688l.199219.117188 101.101563-171.113282c4.167968-7.054687 1.828124-16.152343-5.226563-20.316406zm0 0" fill="#ffbeaa"/><path d="m338.710938 230.570312c-7.949219-1.992187-16.003907 2.839844-17.992188 10.789063l-21.25 84.90625-9.765625-2.445313 29.703125-118.703124c1.988281-7.945313-2.839844-16.003907-10.789062-17.992188l-1.03125-.257812c-7.949219-1.988282-16.003907 2.839843-17.992188 10.789062l-27.121094 108.371094-9.769531-2.445313 31.648437-126.460937c1.988282-7.945313-2.84375-16-10.789062-17.992188l-1.035156-.257812c-7.945313-1.988282-16 2.84375-17.992188 10.789062l-29.574218 118.195313-9.769532-2.445313 26.992188-107.871094c1.992187-7.945312-2.839844-16-10.789063-17.988281l-.039062-.011719c-7.933594-1.984374-15.972657 2.816407-17.976563 10.746094-6.128906 24.234375-25.609375 101.695313-25.421875 101.742188 11.511719 2.957031 18.265625 19.554687 15.988281 31.222656-.085937.460938-.191406.917969-.304687 1.378906l-14.335937 56.253906-11.664063-2.453124c-.019531-.003907-.03125-.027344-.027344-.046876l14.027344-56.054687c2.609375-10.429687-3.65625-21.019531-14.054687-23.75-10.570313-2.773437-21.375 3.621094-24.027344 14.222656l-26.90625 107.519531c-4.707032 18.816407 2.527344 37.859376 16.878906 49.125.015625.011719.019531.027344.015625.042969 0 0-3.132813 12.527344-8.097656 32.394531 35.441406 18.953126 75.863281 29.808594 118.800781 30.097657 5.378906-21.480469 8.816406-35.203125 8.816406-35.203125.003906-.015625.015625-.027344.027344-.03125 17.257812-4.722656 31.773438-17.65625 37.929688-35.433594l.226562.058594 48.246094-192.808594c1.992187-7.949219-2.839844-16.003906-10.785156-17.992188zm0 0" fill="#d47f6c"/><path d="m338.710938 230.570312c-7.949219-1.992187-16.003907 2.839844-17.992188 10.789063l-21.25 84.90625-9.765625-2.445313 29.703125-118.703124c1.988281-7.945313-2.839844-16.003907-10.789062-17.992188l-1.03125-.257812c-7.949219-1.988282-16.003907 2.839843-17.992188 10.789062l-27.121094 108.371094-6.519531-1.632813-54.972656 201.65625c17.175781 3.761719 34.992187 5.804688 53.269531 5.925781 5.378906-21.480468 8.816406-35.203124 8.816406-35.203124.003906-.011719.015625-.023438.027344-.027344 17.257812-4.726563 31.773438-17.65625 37.929688-35.433594l.226562.054688 48.246094-192.808594c1.992187-7.945313-2.839844-16-10.785156-17.988282zm0 0" fill="#cc6d58"/></svg>