<?xml version="1.0" encoding="iso-8859-1"?>
<!-- Generator: Adobe Illustrator 19.0.0, SVG Export Plug-In . SVG Version: 6.00 Build 0)  -->
<svg version="1.1" id="Layer_1" xmlns="http://www.w3.org/2000/svg" xmlns:xlink="http://www.w3.org/1999/xlink" x="0px" y="0px"
	 viewBox="0 0 512 512" style="enable-background:new 0 0 512 512;" xml:space="preserve">
<circle style="fill:#31BAFD;" cx="256" cy="256" r="256"/>
<path style="fill:#2B9ED8;" d="M507.382,304.549L349.367,146.532l-111.271,77.771L135.92,260.546l80.029,80.029l120.729,158.437
	C423.589,470.175,489.82,396.019,507.382,304.549z"/>
<g>
	<path style="fill:#EDBB8E;" d="M256,512c41.572,0,80.822-9.918,115.533-27.503l-65.334-228.669
		c-4.237-14.829-17.792-25.054-33.214-25.054h-33.968c-15.424,0-28.977,10.224-33.214,25.054l-65.336,228.669
		C175.176,502.081,214.428,512,256,512z"/>
	<path style="fill:#EDBB8E;" d="M239.016,230.772c-15.424,0-28.977,10.224-33.214,25.054l-65.336,228.671
		C175.176,502.081,214.428,512,256,512l0,0V230.772H239.016z"/>
</g>
<path style="fill:#DBA375;" d="M306.198,255.828c-4.237-14.829-17.792-25.054-33.214-25.054H256V512
	c41.572,0,80.822-9.918,115.531-27.503L306.198,255.828z"/>
<path style="fill:#935635;" d="M172.754,142.222h13.802c6.266,0,11.774,4.155,13.495,10.18l26.955,94.342
	c2.562,8.966-4.17,17.891-13.495,17.891h-67.712c-9.325,0-16.056-8.925-13.495-17.891l26.955-94.342
	C160.982,146.377,166.488,142.222,172.754,142.222z"/>
<path style="fill:#804000;" d="M325.444,142.222h13.802c6.266,0,11.774,4.155,13.495,10.18l26.955,94.342
	c2.562,8.966-4.17,17.891-13.495,17.891h-67.712c-9.325,0-16.056-8.925-13.495-17.891l26.955-94.342
	C313.67,146.377,319.178,142.222,325.444,142.222z"/>
<g>
	<path style="fill:#F4E3C3;" d="M267.224,341.333h-22.449c-10.193,0-19.151-6.758-21.95-16.558l-43.844-153.452
		c-4.167-14.584,6.784-29.101,21.95-29.101h110.135c15.167,0,26.117,14.517,21.95,29.101l-43.844,153.452
		C286.375,334.576,277.418,341.333,267.224,341.333z"/>
	<path style="fill:#F4E3C3;" d="M200.932,142.222c-15.167,0-26.117,14.517-21.95,29.101l43.844,153.452
		c2.8,9.8,11.759,16.558,21.95,16.558H256V142.222H200.932z"/>
</g>
<path style="fill:#FED8B2;" d="M311.068,142.222H256v199.111h11.224c10.193,0,19.151-6.756,21.951-16.558l43.844-153.452
	C337.186,156.739,326.235,142.222,311.068,142.222z"/>
<circle style="fill:#B97850;" cx="227.556" cy="199.111" r="28.444"/>
<g>
	<circle style="fill:#324A5E;" cx="227.556" cy="199.111" r="8.62"/>
	<circle style="fill:#324A5E;" cx="284.444" cy="199.111" r="8.62"/>
</g>
<g>
	<circle style="fill:#935635;" cx="256" cy="327.111" r="14.222"/>
	<path style="fill:#935635;" d="M256,312.889c-7.854,0-14.222,6.368-14.222,14.222c0,7.854,6.368,14.222,14.222,14.222l0,0V312.889
		L256,312.889z"/>
</g>
<path style="fill:#804000;" d="M270.222,327.111c0-7.854-6.366-14.222-14.222-14.222v28.444
	C263.856,341.333,270.222,334.965,270.222,327.111z"/>
<g>
</g>
<g>
</g>
<g>
</g>
<g>
</g>
<g>
</g>
<g>
</g>
<g>
</g>
<g>
</g>
<g>
</g>
<g>
</g>
<g>
</g>
<g>
</g>
<g>
</g>
<g>
</g>
<g>
</g>
</svg>
