<?xml version="1.0" encoding="iso-8859-1"?>
<!-- Generator: Adobe Illustrator 19.0.0, SVG Export Plug-In . SVG Version: 6.00 Build 0)  -->
<svg version="1.1" id="Capa_1" xmlns="http://www.w3.org/2000/svg" xmlns:xlink="http://www.w3.org/1999/xlink" x="0px" y="0px"
	 viewBox="0 0 512 512" style="enable-background:new 0 0 512 512;" xml:space="preserve">
<circle style="fill:#00EFD1;" cx="256" cy="256" r="256"/>
<path style="fill:#00AD95;" d="M512,256c0-26.827-4.135-52.686-11.788-76.985l-64.968-65.317
	c-13.463-14.461-32.664-23.509-53.98-23.509c-33.645,0-62.006,22.54-70.861,53.336H214.44L199.949,129l-11.921-11.494
	c-13.52-16.665-34.16-27.317-57.292-27.317c-40.728,0-73.745,33.017-73.745,73.745c0,20.956,8.742,39.87,22.777,53.296
	l12.779,12.777l90.201,90.134c-8.897,13.68-14.077,30-14.077,47.535c0,26.571,11.87,50.367,30.594,66.384l77.133,77.133
	C408.246,500.796,512,390.518,512,256z"/>
<rect x="164.693" y="191.447" transform="matrix(-0.8389 0.5442 -0.5442 -0.8389 484.7165 386.9484)" style="fill:#FF328E;" width="40.815" height="147.503"/>
<rect x="306.479" y="191.481" transform="matrix(0.8389 0.5442 -0.5442 0.8389 196.9947 -135.1812)" style="fill:#C50A5B;" width="40.815" height="147.503"/>
<rect x="182.24" y="143.52" style="fill:#FF328E;" width="147.51" height="40.817"/>
<rect x="256" y="143.52" style="fill:#C50A5B;" width="73.76" height="40.82"/>
<circle style="fill:#FFFFFF;" cx="130.74" cy="163.93" r="73.75"/>
<path style="fill:#FFF5CB;" d="M204.484,163.929c0,40.732-33.019,73.751-73.75,73.751V90.189
	C171.465,90.189,204.484,123.209,204.484,163.929z"/>
<circle style="fill:#3C3B41;" cx="130.74" cy="119.06" r="18.12"/>
<path style="fill:#171719;" d="M148.854,119.062c0,10.011-8.11,18.121-18.121,18.121v-36.242
	C140.745,100.942,148.854,109.051,148.854,119.062z"/>
<rect x="120.4" y="183.7" style="fill:#FFC473;" width="20.674" height="26.08"/>
<rect x="130.74" y="183.7" style="fill:#FFAA20;" width="10.338" height="26.08"/>
<path style="fill:#FFE670;" d="M168.919,211.578v15.457c-11.139,6.756-24.211,10.645-38.186,10.645s-27.047-3.889-38.186-10.645
	v-15.457c0-8.378,5.94-15.446,13.813-17.208c0.086-0.011,0.161-0.032,0.247-0.043c0.075-0.021,0.161-0.032,0.236-0.054
	c0.032-0.011,0.064-0.011,0.097-0.021l0.193-0.032c0.011,0,0.021-0.011,0.043-0.011c0.054,0,0.107-0.011,0.161-0.021
	c0.107-0.021,0.215-0.032,0.333-0.054c0.011,0,0.043,0,0.064-0.011c0.021,0,0.054,0,0.075-0.011
	c0.064-0.011,0.129-0.021,0.193-0.021c0.011,0,0.021,0,0.032-0.011h0.075c0.032-0.011,0.064-0.011,0.097-0.011
	c0.161-0.021,0.333-0.043,0.494-0.054c0.011,0,0.021,0,0.021,0c0.054-0.011,0.107-0.011,0.161-0.011
	c0.011,0,0.032-0.011,0.043-0.011c0.086,0,0.183-0.011,0.279-0.011c0.15-0.011,0.322-0.021,0.483-0.021s0.322-0.011,0.483-0.011
	h41.118c0.14,0,0.279,0.011,0.408,0.011h0.172c0.021,0,0.032,0,0.054,0.011c0.118,0,0.226,0,0.333,0.011h0.011
	c0.086,0,0.183,0.011,0.268,0.011c0.021,0,0.032,0.011,0.043,0.011c0.054,0,0.107,0,0.161,0.011c0.011,0,0.011,0,0.021,0
	c0.172,0.011,0.333,0.032,0.494,0.054c0.032,0,0.075,0,0.107,0.011h0.064c0.011,0.011,0.021,0.011,0.032,0.011
	c0.064,0,0.129,0.011,0.193,0.021c0.032,0.011,0.054,0.011,0.086,0.011c0.011,0.011,0.032,0.011,0.054,0.011h0.011
	c0.161,0.021,0.322,0.054,0.494,0.075c0.011,0,0.021,0.011,0.043,0.011l0.193,0.032c0.097,0.021,0.193,0.043,0.301,0.064
	c0.054,0.011,0.118,0.022,0.183,0.043c0.021,0,0.054,0.011,0.086,0.011C162.979,196.132,168.919,203.2,168.919,211.578z"/>
<path style="fill:#FFD400;" d="M168.919,211.578v15.457c-11.139,6.756-24.211,10.645-38.186,10.645v-43.728h20.559
	c0.14,0,0.279,0.011,0.408,0.011h0.172c0.021,0,0.032,0,0.054,0.011c0.118,0,0.226,0,0.333,0.011h0.011
	c0.086,0,0.183,0.011,0.268,0.011c0.021,0,0.032,0.011,0.043,0.011c0.054,0,0.107,0,0.161,0.011c0.011,0,0.011,0,0.021,0
	c0.172,0.011,0.333,0.032,0.494,0.054c0.032,0,0.075,0,0.107,0.011h0.064c0.011,0.011,0.021,0.011,0.032,0.011
	c0.064,0,0.129,0.011,0.193,0.021c0.032,0.011,0.054,0.011,0.086,0.011c0.011,0.011,0.032,0.011,0.054,0.011h0.011
	c0.161,0.021,0.322,0.054,0.494,0.075c0.011,0,0.021,0.011,0.043,0.011l0.193,0.032c0.097,0.021,0.193,0.043,0.301,0.064
	c0.054,0.011,0.118,0.022,0.183,0.043c0.021,0,0.054,0.011,0.086,0.011C162.979,196.132,168.919,203.2,168.919,211.578z"/>
<path style="fill:#FFDBA9;" d="M157.347,149.292c-1.111-16.356-15.06-25.639-26.612-25.639s-25.501,9.283-26.612,25.639
	c-2.989,0.56-5.11,3.354-4.778,6.425l0.515,4.753c0.349,3.224,3.273,5.577,6.497,5.227l0.555-0.06
	c6.6,17.181,17.252,21.604,23.822,22.609c6.571-1.005,17.222-5.428,23.822-22.609l0.555,0.06c3.224,0.349,6.148-2.003,6.497-5.227
	l0.515-4.753C162.458,152.646,160.337,149.852,157.347,149.292z"/>
<path style="fill:#FFC473;" d="M162.126,155.717l-0.515,4.754c-0.351,3.224-3.273,5.575-6.497,5.227l-0.557-0.06
	c-6.599,17.181-17.251,21.603-23.822,22.608v-64.592c11.394,0,25.121,9.031,26.56,24.975c0.021,0.23,0.037,0.45,0.051,0.664
	C160.337,149.852,162.458,152.647,162.126,155.717z"/>
<polygon style="fill:#FFA91F;" points="130.737,151.307 130.737,169.73 136.115,169.73 136.115,156.685 147.831,156.685 
	147.831,151.307 "/>
<rect x="113.24" y="151.31" style="fill:#FFC473;" width="13.716" height="5.378"/>
<path style="fill:#57555C;" d="M104.124,149.292c0,0,15.522-0.229,26.611-12.321h0.001c11.088,12.092,26.611,12.321,26.611,12.321
	c0-12.422,0.001-30.231-26.611-30.231C104.124,119.062,104.124,136.869,104.124,149.292z"/>
<path style="fill:#3C3B41;" d="M157.346,149.292c0,0-3.881-0.057-9.146-1.624c-5.268-1.57-11.92-4.65-17.464-10.696v-17.91
	C157.348,119.062,157.346,136.871,157.346,149.292z"/>
<circle style="fill:#FFFFFF;" cx="381.26" cy="163.93" r="73.75"/>
<path style="fill:#FFF5CB;" d="M455.008,163.929c0,40.732-33.019,73.751-73.75,73.751V90.189
	C421.989,90.189,455.008,123.209,455.008,163.929z"/>
<path style="fill:#E67500;" d="M425.417,167.529c0-6.102-3.389-11.411-8.387-14.151c-0.011-0.006-0.013-0.02-0.003-0.029
	c3.357-2.955,5.478-7.282,5.478-12.106c0-8.367-6.372-15.244-14.528-16.048c-0.009-0.001-0.017-0.009-0.016-0.019
	c0.018-0.314,0.03-0.629,0.03-0.947c0-8.907-7.221-16.128-16.127-16.128c-3.133,0-6.056,0.895-8.53,2.442
	c-1.262,0.789-2.878,0.789-4.14,0c-2.474-1.547-5.396-2.442-8.529-2.442c-8.907,0-16.128,7.22-16.128,16.128
	c0,0.318,0.012,0.634,0.03,0.947c0.001,0.009-0.007,0.018-0.016,0.019c-8.156,0.803-14.528,7.681-14.528,16.048
	c0,4.824,2.121,9.15,5.478,12.106c0.009,0.008,0.008,0.023-0.003,0.029c-4.998,2.74-8.387,8.049-8.387,14.151
	c0,5.973,3.249,11.183,8.074,13.97c0.008,0.005,0.011,0.015,0.007,0.023c-1.202,2.238-1.892,4.792-1.91,7.505
	c-0.061,8.933,7.565,16.24,16.498,16.24h42.97c8.934,0,16.56-7.307,16.498-16.241c-0.019-2.714-0.709-5.267-1.91-7.505
	c-0.004-0.008-0.002-0.019,0.007-0.023C422.167,178.712,425.417,173.502,425.417,167.529z"/>
<path style="fill:#C06100;" d="M417.343,181.502c-0.006,0-0.012,0.012-0.006,0.018c1.202,2.238,1.888,4.794,1.907,7.504
	c0.067,8.939-7.56,16.241-16.492,16.241h-21.489v-94.129c0.717,0,1.441-0.202,2.072-0.595c2.471-1.545,5.395-2.44,8.528-2.44
	c8.908,0,16.131,7.222,16.131,16.131c0,0.313-0.012,0.632-0.031,0.944c0,0.012,0.006,0.018,0.012,0.018
	c8.16,0.803,14.53,7.682,14.53,16.051c0,4.819-2.121,9.147-5.481,12.103c-0.006,0.006-0.006,0.024,0.006,0.031
	c4.997,2.741,8.387,8.05,8.387,14.15C425.417,173.501,422.168,178.712,417.343,181.502z"/>
<rect x="370.93" y="183.7" style="fill:#FFC473;" width="20.674" height="26.08"/>
<rect x="381.26" y="183.7" style="fill:#FFAA20;" width="10.338" height="26.08"/>
<path style="fill:#AB3CCC;" d="M419.452,211.578v15.457c-11.139,6.756-24.211,10.645-38.186,10.645s-27.047-3.889-38.186-10.645
	v-15.457c0-8.378,5.94-15.446,13.813-17.208c0.075-0.011,0.161-0.032,0.236-0.043c0.086-0.021,0.161-0.032,0.247-0.054
	c0.032-0.011,0.054-0.011,0.086-0.021l0.193-0.032c0.021,0,0.032-0.011,0.043-0.011c0.054,0,0.108-0.011,0.161-0.021
	c0.107-0.021,0.225-0.032,0.333-0.054c0.021,0,0.043,0,0.064-0.011c0.032,0,0.054,0,0.086-0.011
	c0.065-0.011,0.118-0.021,0.193-0.021c0,0,0.011,0,0.021-0.011h0.075c0.032-0.011,0.064-0.011,0.097-0.011
	c0.172-0.021,0.333-0.043,0.494-0.054h0.032c0.054-0.011,0.107-0.011,0.161-0.011c0.011,0,0.021-0.011,0.032-0.011
	c0.097,0,0.182-0.011,0.279-0.011c0.161-0.011,0.322-0.021,0.483-0.021s0.322-0.011,0.494-0.011h41.118
	c0.14,0,0.279,0.011,0.408,0.011h0.172c0.021,0,0.032,0,0.054,0.011c0.118,0,0.226,0,0.333,0.011c0.097,0,0.183,0.011,0.279,0.011
	c0.011,0,0.022,0.011,0.043,0.011c0.043,0,0.097,0,0.15,0.011h0.032c0.161,0.011,0.333,0.032,0.494,0.054
	c0.032,0,0.064,0,0.097,0.011h0.075c0.011,0.011,0.022,0.011,0.032,0.011c0.065,0,0.129,0.011,0.193,0.021
	c0.022,0.011,0.043,0.011,0.075,0.011c0.021,0.011,0.043,0.011,0.054,0.011h0.011c0.172,0.021,0.333,0.054,0.494,0.075
	c0.011,0,0.032,0.011,0.043,0.011l0.193,0.032c0.097,0.021,0.204,0.043,0.301,0.064c0.064,0.011,0.118,0.022,0.182,0.043
	c0.032,0,0.065,0.011,0.086,0.011C413.512,196.132,419.452,203.2,419.452,211.578z"/>
<path style="fill:#802897;" d="M419.452,211.578v15.457c-11.139,6.756-24.211,10.645-38.186,10.645v-43.728h20.559
	c0.14,0,0.279,0.011,0.408,0.011h0.172c0.021,0,0.032,0,0.054,0.011c0.118,0,0.226,0,0.333,0.011c0.097,0,0.183,0.011,0.279,0.011
	c0.011,0,0.022,0.011,0.043,0.011c0.043,0,0.097,0,0.15,0.011h0.032c0.161,0.011,0.333,0.032,0.494,0.054
	c0.032,0,0.064,0,0.097,0.011h0.075c0.011,0.011,0.022,0.011,0.032,0.011c0.065,0,0.129,0.011,0.193,0.021
	c0.022,0.011,0.043,0.011,0.075,0.011c0.021,0.011,0.043,0.011,0.054,0.011h0.011c0.172,0.021,0.333,0.054,0.494,0.075
	c0.011,0,0.032,0.011,0.043,0.011l0.193,0.032c0.097,0.021,0.204,0.043,0.301,0.064c0.064,0.011,0.118,0.022,0.182,0.043
	c0.032,0,0.065,0.011,0.086,0.011C413.512,196.132,419.452,203.2,419.452,211.578z"/>
<path style="fill:#FFDBA9;" d="M407.875,149.292c-1.111-16.356-15.06-25.639-26.612-25.639s-25.501,9.283-26.612,25.639
	c-2.989,0.56-5.11,3.354-4.778,6.425l0.515,4.753c0.349,3.224,3.273,5.577,6.497,5.227l0.555-0.06
	c6.6,17.181,17.252,21.604,23.822,22.609c6.571-1.005,17.222-5.428,23.822-22.609l0.555,0.06c3.224,0.349,6.148-2.003,6.497-5.227
	l0.515-4.753C412.986,152.646,410.864,149.852,407.875,149.292z"/>
<path style="fill:#FFC473;" d="M412.654,155.717l-0.515,4.754c-0.35,3.224-3.273,5.575-6.497,5.227l-0.557-0.06
	c-6.599,17.181-17.25,21.603-23.822,22.608v-64.592c11.394,0,25.121,9.031,26.56,24.975c0.021,0.23,0.037,0.45,0.051,0.664
	C410.865,149.852,412.986,152.647,412.654,155.717z"/>
<polygon style="fill:#FFA91F;" points="381.265,151.307 381.265,169.73 386.643,169.73 386.643,156.685 398.359,156.685 
	398.359,151.307 "/>
<rect x="363.77" y="151.31" style="fill:#FFC473;" width="13.716" height="5.378"/>
<path style="fill:#C06100;" d="M354.652,149.292c0,0,15.522-0.229,26.611-12.321h0.001c11.088,12.092,26.611,12.321,26.611,12.321
	c0-12.422,0.001-30.231-26.611-30.231C354.652,119.062,354.652,136.869,354.652,149.292z"/>
<path style="fill:#9A4C00;" d="M407.874,149.292c0,0-3.881-0.057-9.146-1.624c-5.268-1.57-11.92-4.65-17.464-10.696v-17.91
	C407.876,119.062,407.874,136.871,407.874,149.292z"/>
<circle style="fill:#FFFFFF;" cx="256" cy="367.67" r="87.33"/>
<path style="fill:#FFF5CB;" d="M343.328,367.675c0,48.229-39.099,87.328-87.328,87.328V280.347
	C304.229,280.347,343.328,319.446,343.328,367.675z"/>
<path style="fill:#3C3B41;" d="M255.758,301.945c-12.243,0-40.866,5.77-40.866,42.142c0,34.227,0,75.121,0,75.121h81.732
	c0,0,0-40.894,0-75.121C296.624,307.714,268.001,301.945,255.758,301.945z"/>
<path style="fill:#171719;" d="M296.622,344.084c0,34.23,0,75.123,0,75.123H256V301.945
	C268.373,302.02,296.622,307.95,296.622,344.084z"/>
<rect x="244.12" y="386.97" style="fill:#9A4C00;" width="23.781" height="30"/>
<rect x="256" y="386.97" style="fill:#703700;" width="11.892" height="30"/>
<path style="fill:#C8C6CC;" d="M299.922,419.038v24.125c-0.408,0.236-0.806,0.462-1.214,0.698c-0.816,0.462-1.633,0.902-2.46,1.332
	h-0.011c-0.827,0.44-1.654,0.849-2.503,1.257h-0.011c-0.838,0.408-1.686,0.806-2.546,1.182c-0.44,0.182-0.87,0.365-1.31,0.559
	c-0.859,0.365-1.729,0.72-2.61,1.053c-0.451,0.161-0.891,0.333-1.343,0.494c-0.881,0.333-1.772,0.645-2.675,0.934
	C274.669,453.474,265.517,455,256,455c-16.005,0-31.01-4.308-43.911-11.827v-24.136c0-9.646,6.832-17.766,15.887-19.786
	c0.097-0.022,0.183-0.043,0.279-0.065c0.086-0.021,0.183-0.032,0.279-0.054c0.032-0.011,0.064-0.011,0.107-0.022l0.215-0.043
	c0.022,0,0.032-0.011,0.054-0.011c0.064,0,0.129-0.022,0.183-0.022c0.129-0.021,0.258-0.043,0.387-0.064
	c0.022,0,0.054-0.011,0.075-0.011c0.032,0,0.054-0.011,0.086-0.011c0.075-0.011,0.15-0.021,0.226-0.032h0.032
	c0.032,0,0.054-0.011,0.086-0.011c0.032-0.011,0.075-0.011,0.118-0.011c0.183-0.022,0.376-0.043,0.559-0.065
	c0.021,0,0.021,0,0.032,0c0.064,0,0.129-0.011,0.182-0.011c0.022,0,0.032-0.011,0.054-0.011c0.097,0,0.204-0.011,0.312-0.011
	c0.183-0.021,0.376-0.021,0.559-0.021c0.183-0.011,0.376-0.011,0.559-0.011h47.294c0.15,0,0.311,0,0.473,0.011h0.258
	c0.129,0,0.258,0.011,0.387,0.021c0.107,0,0.215,0.011,0.311,0.011c0.021,0,0.032,0.011,0.054,0.011
	c0.054,0,0.118,0.011,0.183,0.011c0.011,0,0.011,0,0.032,0c0.183,0.022,0.376,0.043,0.559,0.065c0.043,0,0.086,0,0.118,0.011
	c0.032,0,0.054,0.011,0.086,0.011h0.032c0.075,0.011,0.15,0.021,0.226,0.032c0.032,0,0.054,0.011,0.086,0.011
	c0.021,0,0.054,0,0.064,0.011h0.011c0.193,0.032,0.387,0.054,0.569,0.086c0.022,0,0.032,0.011,0.054,0.011l0.215,0.043
	c0.118,0.022,0.236,0.043,0.354,0.064c0.064,0.021,0.14,0.032,0.204,0.054c0.032,0,0.075,0.011,0.107,0.022
	c3.964,0.881,7.498,2.932,10.226,5.768C297.763,408.672,299.922,413.613,299.922,419.038z"/>
<path style="fill:#8B8992;" d="M299.922,419.038v24.125c-0.408,0.236-0.806,0.462-1.214,0.698c-0.816,0.451-1.633,0.892-2.46,1.332
	h-0.011c-0.827,0.43-1.665,0.849-2.503,1.257h-0.011c-0.849,0.408-1.697,0.795-2.546,1.182c-0.44,0.182-0.87,0.365-1.31,0.559
	c-0.87,0.365-1.74,0.709-2.61,1.053c-0.451,0.161-0.891,0.333-1.343,0.494c-0.881,0.322-1.772,0.634-2.675,0.934
	C274.669,453.474,265.517,455,256,455v-56.231h23.653c0.15,0,0.311,0,0.473,0.011h0.258c0.129,0,0.258,0.011,0.387,0.021
	c0.107,0,0.215,0.011,0.311,0.011c0.021,0,0.032,0.011,0.054,0.011c0.054,0,0.118,0.011,0.183,0.011c0.011,0,0.011,0,0.032,0
	c0.183,0.022,0.376,0.043,0.559,0.065c0.043,0,0.086,0,0.118,0.011c0.032,0,0.054,0.011,0.086,0.011h0.032
	c0.075,0.011,0.15,0.021,0.226,0.032c0.032,0,0.054,0.011,0.086,0.011c0.021,0,0.054,0,0.064,0.011h0.011
	c0.193,0.032,0.387,0.054,0.569,0.086c0.022,0,0.032,0.011,0.054,0.011l0.215,0.043c0.118,0.022,0.236,0.043,0.354,0.064
	c0.064,0.021,0.14,0.032,0.204,0.054c0.032,0,0.075,0.011,0.107,0.022c3.964,0.881,7.498,2.932,10.226,5.768
	C297.763,408.672,299.922,413.613,299.922,419.038z"/>
<path style="fill:#E67500;" d="M286.618,347.393c-1.278-18.815-17.324-29.493-30.612-29.493s-29.334,10.678-30.612,29.493
	c-3.439,0.644-5.879,3.858-5.496,7.391l0.592,5.467c0.402,3.709,3.765,6.415,7.474,6.013l0.639-0.069
	c7.592,19.763,19.845,24.851,27.403,26.007c7.558-1.156,19.811-6.244,27.403-26.007l0.639,0.069
	c3.709,0.402,7.072-2.304,7.474-6.013l0.592-5.467C292.496,351.25,290.056,348.037,286.618,347.393z"/>
<path style="fill:#9A4C00;" d="M292.109,354.784l-0.593,5.468c-0.403,3.709-3.765,6.413-7.473,6.013l-0.641-0.069
	c-7.591,19.763-19.843,24.849-27.402,26.006v-74.3c13.107,0,28.897,10.389,30.553,28.729c0.024,0.264,0.043,0.518,0.059,0.764
	C290.05,348.036,292.491,351.251,292.109,354.784z"/>
<path style="fill:#57555C;" d="M224.987,325.986c0,0,11.007,23.476,63.806,20.822c0,0,4.713-31.104-29.716-36.925
	C239.65,306.598,224.987,325.986,224.987,325.986z"/>
<path style="fill:#3C3B41;" d="M288.79,346.806c-13.486,0.682-24.245-0.349-32.79-2.253v-35.01c1.014,0.051,2.039,0.158,3.076,0.338
	C293.505,315.706,288.79,346.806,288.79,346.806z"/>
<polygon style="fill:#703700;" points="256,349.711 256,370.902 262.186,370.902 262.186,355.897 275.663,355.897 275.663,349.711 
	"/>
<rect x="235.88" y="349.71" style="fill:#9A4C00;" width="15.777" height="6.186"/>
<g>
</g>
<g>
</g>
<g>
</g>
<g>
</g>
<g>
</g>
<g>
</g>
<g>
</g>
<g>
</g>
<g>
</g>
<g>
</g>
<g>
</g>
<g>
</g>
<g>
</g>
<g>
</g>
<g>
</g>
</svg>
