<?xml version="1.0" encoding="iso-8859-1"?>
<!-- Generator: Adobe Illustrator 19.0.0, SVG Export Plug-In . SVG Version: 6.00 Build 0)  -->
<svg version="1.1" id="Capa_1" xmlns="http://www.w3.org/2000/svg" xmlns:xlink="http://www.w3.org/1999/xlink" x="0px" y="0px"
	 viewBox="0 0 512 512" style="enable-background:new 0 0 512 512;" xml:space="preserve">
<circle style="fill:#00AD95;" cx="256" cy="256" r="256"/>
<path style="fill:#006659;" d="M512,256c0-7.823-0.371-15.558-1.058-23.201L435.9,157.76c-3.674-3.76-8.419-6.292-13.801-6.96
	c-0.93-0.11-1.86-0.17-2.78-0.17c-6.566,0-12.727,2.87-17.394,7.637l-59.598-59.583c-5.696-6.173-12.663-10.621-20.552-12.754
	c-36.438-9.851-58.276,20.729-64.157,30.418L242.572,101.3c-10.963-10.981-28.537-21.807-52.347-15.37
	c-40.405,10.923-56.594,82.529-1.894,135.744l99.163,99.194c-1.839,2.462-3.218,5.316-3.643,8.783
	c-0.032,0.255-0.153,1.227-0.347,2.786c-0.023-0.015-0.046-0.029-0.069-0.044L110.876,159.116
	c-4.75-5.276-11.248-8.486-18.196-8.486c-0.92,0-1.85,0.06-2.78,0.17c-13.79,1.71-23.42,15.65-21.51,31.15L81.26,286.2
	c2.148,17.382,5.043,37.022,16.91,50.31l19.952,19.812c3.618,5.235,4.115,9.667,5.108,17.738l13.498,108.495
	c0.401,0.212,0.802,0.426,1.204,0.635c1.992,1.035,3.998,2.046,6.019,3.032l0.001,0.007C177.796,502.73,215.814,512,256,512
	C397.385,512,512,397.385,512,256z"/>
<path style="fill:#FFDBA9;" d="M443.61,181.95L430.74,286.2c-2.37,19.18-5.65,41.11-20.89,54.22
	c-19.12,16.43-19.31,19.25-21.08,33.64l-13.5,108.51c-27.46,14.49-57.88,24.13-90.12,27.79l21.06-169.5
	c0.23-1.86,1.13-3.55,2.49-4.67l70.47-58.47c1.36-1.13,2.26-2.82,2.49-4.67l12-97.27c1.78-14.45,12.97-25.15,25.66-25.15
	c0.92,0,1.85,0.06,2.78,0.17C435.89,152.51,445.52,166.45,443.61,181.95z"/>
<path style="fill:#FFC473;" d="M372.61,299.48c0,0-17.31,14.22-17.39,14.28l-36.08,29.6l-20.51,165.1
	c-4.45,0.75-8.95,1.39-13.48,1.9c-7.88,0.89-15.86,1.43-23.94,1.58c4.77-38.42,22.19-178.71,22.64-182.29
	c1.1-8.96,8.53-13.86,13.97-18.33c3.49-2.86,51.87-42.74,51.87-42.74c3.83-3.14,8.83-4.79,13.71-4.79c5.56,0,10.96,2.13,14.31,6.65
	C384.01,278.94,380.78,292.77,372.61,299.48z"/>
<path style="fill:#FFDBA9;" d="M226.85,510.36c-32.24-3.66-62.66-13.3-90.12-27.79l-13.5-108.51c-1.77-14.39-1.96-17.21-21.08-33.64
	c-15.24-13.11-18.52-35.04-20.89-54.22L68.39,181.95c-1.91-15.5,7.72-29.44,21.51-31.15c0.93-0.11,1.86-0.17,2.78-0.17
	c12.69,0,23.88,10.7,25.66,25.15l12,97.27c0.23,1.85,1.13,3.54,2.49,4.67l70.47,58.47c1.36,1.12,2.26,2.81,2.49,4.67L226.85,510.36z
	"/>
<path style="fill:#FFC473;" d="M250.79,511.94c-8.08-0.15-16.06-0.69-23.94-1.58c-4.53-0.51-9.03-1.15-13.48-1.9l-20.51-165.1
	l-36.08-29.6c-0.08-0.06-17.39-14.28-17.39-14.28c-8.17-6.71-11.4-20.54-5.1-29.04c3.35-4.52,8.75-6.65,14.31-6.65
	c4.88,0,9.88,1.65,13.71,4.79c0,0,48.38,39.88,51.87,42.74c5.44,4.47,12.87,9.37,13.97,18.33
	C228.6,333.23,246.02,473.52,250.79,511.94z"/>
<path style="fill:#FF328E;" d="M321.775,85.93C278.675,74.278,256,119.194,256,119.194s-22.675-44.916-65.775-33.264
	C137.958,100.06,126.187,215.736,256,261.788C385.813,215.736,374.042,100.06,321.775,85.93z"/>
<path style="fill:#C50A5B;" d="M256,119.194c0,0,22.675-44.916,65.775-33.264c52.266,14.13,64.038,129.806-65.775,175.858V119.194z"
	/>
<g>
</g>
<g>
</g>
<g>
</g>
<g>
</g>
<g>
</g>
<g>
</g>
<g>
</g>
<g>
</g>
<g>
</g>
<g>
</g>
<g>
</g>
<g>
</g>
<g>
</g>
<g>
</g>
<g>
</g>
</svg>
