<?xml version="1.0" encoding="iso-8859-1"?>
<!-- Generator: Adobe Illustrator 19.0.0, SVG Export Plug-In . SVG Version: 6.00 Build 0)  -->
<svg version="1.1" id="Layer_1" xmlns="http://www.w3.org/2000/svg" xmlns:xlink="http://www.w3.org/1999/xlink" x="0px" y="0px"
	 viewBox="0 0 512 512" style="enable-background:new 0 0 512 512;" xml:space="preserve">
<circle style="fill:#31BAFD;" cx="256" cy="256" r="256"/>
<path style="fill:#2B9ED8;" d="M507.089,306.078l-138.5-138.5L253.702,291.628l-110.29,105.108l115.231,115.231
	C381.709,510.721,483.969,422.65,507.089,306.078z"/>
<polygon style="fill:#E9EFF4;" points="316.276,115.264 143.412,115.264 143.412,396.736 368.588,396.736 368.588,167.577 "/>
<polygon style="fill:#CFDBE6;" points="368.588,167.577 316.276,115.264 255.426,115.264 255.426,396.736 368.588,396.736 "/>
<polygon style="fill:#B8C9D9;" points="316.276,167.577 368.588,167.577 316.276,115.264 "/>
<path style="fill:#804000;" d="M187.037,374.039c-1.979,0-3.987-0.486-5.841-1.515c-5.829-3.231-7.937-10.576-4.705-16.405
	l41.369-74.635c3.232-5.83,10.576-7.939,16.405-4.705c5.829,3.231,7.937,10.576,4.705,16.405l-41.369,74.635
	C195.398,371.795,191.281,374.039,187.037,374.039z"/>
<path style="fill:#57442F;" d="M234.267,276.782c-0.183-0.102-0.372-0.183-0.559-0.274l-52.957,95.739
	c0.15,0.091,0.291,0.191,0.445,0.278c1.853,1.029,3.86,1.515,5.841,1.515c4.244,0,8.361-2.245,10.564-6.218l41.369-74.635
	C242.202,287.356,240.094,280.012,234.267,276.782z"/>
<circle style="fill:#FFFFFF;" cx="249.104" cy="250.018" r="51.709"/>
<path style="fill:#E9EFF4;" d="M274.168,204.793c-0.203-0.112-0.41-0.212-0.615-0.321l-50.04,90.465
	c0.176,0.1,0.343,0.207,0.519,0.305c24.978,13.845,56.448,4.82,70.292-20.158C308.171,250.108,299.146,218.636,274.168,204.793z"/>
<path style="fill:#B97850;" d="M248.999,310.336c-9.887,0-19.902-2.431-29.144-7.554c-29.094-16.125-39.645-52.915-23.519-82.01
	c7.811-14.095,20.645-24.304,36.135-28.744c15.491-4.439,31.784-2.584,45.875,5.227c29.094,16.125,39.645,52.914,23.519,82.01l0,0
	C290.863,299.117,270.234,310.336,248.999,310.336z M249.161,206.908c-3.987,0-7.999,0.559-11.938,1.688
	c-11.064,3.174-20.228,10.464-25.81,20.53c-11.517,20.782-3.982,47.057,16.798,58.577c10.068,5.58,21.704,6.906,32.766,3.732
	c11.064-3.172,20.228-10.462,25.81-20.528c5.579-10.068,6.904-21.704,3.732-32.768c-3.174-11.064-10.462-20.228-20.53-25.809
	C263.508,208.739,256.374,206.908,249.161,206.908z"/>
<path style="fill:#935635;" d="M278.347,197.254c-0.205-0.114-0.415-0.214-0.622-0.324l-8.345,15.088
	c0.202,0.109,0.41,0.202,0.61,0.314c10.068,5.579,17.356,14.745,20.53,25.809c3.172,11.064,1.846,22.7-3.732,32.768
	c-5.58,10.066-14.746,17.356-25.81,20.528c-11.062,3.174-22.699,1.848-32.766-3.732c-0.179-0.1-0.35-0.209-0.526-0.309
	l-8.344,15.084c0.174,0.098,0.34,0.205,0.514,0.302c9.242,5.123,19.258,7.554,29.144,7.554c21.233,0,41.862-11.219,52.865-31.07
	C317.992,250.168,307.441,213.378,278.347,197.254z"/>
<g>
</g>
<g>
</g>
<g>
</g>
<g>
</g>
<g>
</g>
<g>
</g>
<g>
</g>
<g>
</g>
<g>
</g>
<g>
</g>
<g>
</g>
<g>
</g>
<g>
</g>
<g>
</g>
<g>
</g>
</svg>
