<?xml version="1.0" encoding="iso-8859-1"?>
<!-- Generator: Adobe Illustrator 19.0.0, SVG Export Plug-In . SVG Version: 6.00 Build 0)  -->
<svg version="1.1" id="Layer_1" xmlns="http://www.w3.org/2000/svg" xmlns:xlink="http://www.w3.org/1999/xlink" x="0px" y="0px"
	 viewBox="0 0 460 460" style="enable-background:new 0 0 460 460;" xml:space="preserve">
<g>
	<path style="fill:#FF7F4F;" d="M230,0.167c-127.026,0-230,102.975-230,230C0,338.562,74.984,429.444,175.91,453.77L456.588,190.47
		C437.779,82.364,343.489,0.167,230,0.167z"/>
	<path style="fill:#FF5419;" d="M460,229.833c0-13.424-1.163-26.576-3.37-39.369L364,97.833l-21.023,8.978L304,67.833L105,382.451
		l70.988,70.988c17.325,4.17,35.407,6.395,54.012,6.395C357.026,459.833,460,356.859,460,229.833z"/>
	<path style="fill:#38C6D9;" d="M284,97.833v263.55c0,16.5,33.34,30.14,49.83,30.2c16.54,0,30.17-13.66,30.17-30.2V97.833H284z"/>
	<path style="fill:#C2FBFF;" d="M333.83,391.583l-133.5,0.16l-27-155.907l27-168.003H304v293.55
		C304,377.883,317.34,391.523,333.83,391.583z"/>
	<path style="fill:#FFFFFF;" d="M200.33,67.833v323.91l-74.43,0.09c-16.54,0-29.9-13.91-29.9-30.45V67.833H200.33z"/>
	<polygon style="fill:#273B7A;" points="200.321,249.788 282.962,249.788 282.962,229.788 200.321,229.788 195.429,239.788 	"/>
	<rect x="117.955" y="229.788" style="fill:#366796;" width="82.366" height="20"/>
	<polygon style="fill:#273B7A;" points="200.321,209.788 282.962,209.788 282.962,189.788 200.321,189.788 195.429,199.788 	"/>
	<rect x="117.955" y="189.788" style="fill:#366796;" width="82.366" height="20"/>
	<polygon style="fill:#273B7A;" points="200.321,169.788 282.962,169.788 282.962,149.788 200.321,149.788 195.429,159.788 	"/>
	<rect x="117.955" y="149.788" style="fill:#366796;" width="82.366" height="20"/>
	<polygon style="fill:#273B7A;" points="200.321,129.788 282.962,129.788 282.962,89.788 200.321,89.788 195.429,109.788 	"/>
	<rect x="117.955" y="89.788" style="fill:#366796;" width="82.366" height="40"/>
	<polygon style="fill:#273B7A;" points="200.321,289.788 282.962,289.788 282.962,269.788 200.321,269.788 195.429,279.788 	"/>
	<rect x="117.955" y="269.788" style="fill:#366796;" width="82.366" height="20"/>
	<rect x="117.955" y="309.788" style="fill:#366796;" width="82.366" height="20"/>
	<rect x="117.955" y="349.788" style="fill:#366796;" width="82.366" height="20"/>
	<rect x="220.321" y="309.788" style="fill:#38C6D9;" width="62.641" height="60"/>
</g>
<g>
</g>
<g>
</g>
<g>
</g>
<g>
</g>
<g>
</g>
<g>
</g>
<g>
</g>
<g>
</g>
<g>
</g>
<g>
</g>
<g>
</g>
<g>
</g>
<g>
</g>
<g>
</g>
<g>
</g>
</svg>
