<?xml version="1.0" encoding="iso-8859-1"?>
<!-- Generator: Adobe Illustrator 19.0.0, SVG Export Plug-In . SVG Version: 6.00 Build 0)  -->
<svg version="1.1" id="Layer_1" xmlns="http://www.w3.org/2000/svg" xmlns:xlink="http://www.w3.org/1999/xlink" x="0px" y="0px"
	 viewBox="0 0 512.002 512.002" style="enable-background:new 0 0 512.002 512.002;" xml:space="preserve">
<circle style="fill:#FFD15D;" cx="256.001" cy="256.001" r="256.001"/>
<path style="fill:#F9B54C;" d="M512,256.004c0-0.003,0-0.007,0-0.01L398.222,142.216l-211.536,178.24l-72.909,49.316
	l142.226,142.226C397.387,511.998,512,397.387,512,256.004z"/>
<rect x="113.776" y="142.223" style="fill:#935635;" width="284.445" height="227.556"/>
<rect x="134.463" y="167.495" style="fill:#E6F3FF;" width="243.072" height="176.994"/>
<path style="fill:#FED8B2;" d="M323.82,278.294v-11.728h-21.149v11.728c0,0.936-0.759,1.695-1.695,1.695h-14.574v40.467h53.686
	v-40.467h-14.574C324.58,279.989,323.82,279.229,323.82,278.294z"/>
<path style="fill:#EABE96;" d="M340.088,279.989h-14.574c-0.936,0-1.695-0.759-1.695-1.695v-11.728h-11.059v53.889h27.327
	L340.088,279.989L340.088,279.989z"/>
<circle style="fill:#FED8B2;" cx="278.084" cy="242.003" r="8.452"/>
<circle style="fill:#EABE96;" cx="346.592" cy="242.003" r="8.452"/>
<path style="fill:#F4E3C3;" d="M313.297,277.193h-1.905c-17.617,0-31.898-14.281-31.898-31.898v-29.124
	c0-17.617,14.281-31.898,31.898-31.898h1.905c17.617,0,31.898,14.281,31.898,31.898v29.124
	C345.194,262.912,330.913,277.193,313.297,277.193z"/>
<path style="fill:#FED8B2;" d="M313.297,184.276h-0.536v92.917h0.536c17.617,0,31.898-14.281,31.898-31.898v-29.124
	C345.194,198.557,330.913,184.276,313.297,184.276z"/>
<path style="fill:#F9B54C;" d="M341.734,195.055c-6.265-8.923-16.625-14.762-28.357-14.762h-2.069
	c-19.127,0-34.632,15.505-34.632,34.632v2.679v24.395h5.084v-14.307c0,0-0.002,0-0.003,0c15.429-1.567,30.599-4.594,43.896-11.242
	c4.786,5.494,10.311,10.4,16.41,14.383v11.166h5.944v-18.237v-8.835C348.009,207.53,345.684,200.681,341.734,195.055z"/>
<path style="fill:#F4A200;" d="M341.734,195.055c-6.265-8.923-16.625-14.762-28.357-14.762h-0.617v41.369
	c4.446-1.431,8.761-3.148,12.895-5.213c4.786,5.494,10.311,10.4,16.41,14.383v11.166h5.944V223.76v-8.835
	C348.009,207.528,345.684,200.681,341.734,195.055z"/>
<circle style="fill:#59595B;" cx="296.858" cy="238.245" r="3.286"/>
<circle style="fill:#272525;" cx="327.836" cy="238.245" r="3.286"/>
<path style="fill:#84DBFF;" d="M366.931,304.527c0-13.552-10.986-24.538-24.538-24.538h-11.252c0,9.883-17.896,19.482-17.896,19.482
	s-17.896-9.597-17.896-19.482h-11.252c-13.552,0-24.538,10.986-24.538,24.538v18.699h107.372L366.931,304.527L366.931,304.527z"/>
<path style="fill:#31BAFD;" d="M366.931,304.527c0-13.552-10.986-24.538-24.538-24.538h-11.252c0,9.883-17.896,19.482-17.896,19.482
	s-0.107-0.057-0.284-0.157v23.914h53.97L366.931,304.527L366.931,304.527z"/>
<path style="fill:#FD8469;" d="M312.345,265.165c-5.918,0-10.733-4.815-10.733-10.733c0-1.003,0.814-1.817,1.817-1.817
	c1.003,0,1.817,0.814,1.817,1.817c0,3.915,3.186,7.101,7.101,7.101c3.915,0,7.101-3.186,7.101-7.101
	c0-1.003,0.814-1.817,1.817-1.817c1.003,0,1.817,0.814,1.817,1.817C323.078,260.35,318.263,265.165,312.345,265.165z"/>
<path style="fill:#FC6F58;" d="M323.078,254.432c0-1.003-0.814-1.817-1.817-1.817s-1.817,0.814-1.817,1.817
	c0,3.774-2.963,6.861-6.684,7.078v3.632C318.486,264.922,323.078,260.211,323.078,254.432z"/>
<polygon style="fill:#935635;" points="163.018,244.48 163.018,292.591 198.858,290.245 198.858,242.134 "/>
<polygon style="fill:#804000;" points="234.709,239.786 198.858,242.134 198.858,290.245 234.709,287.898 "/>
<path style="fill:#FED8B2;" d="M225.857,285.075h-14.62c-0.94,0-1.7-0.76-1.7-1.7v-11.764h-21.218v11.764c0,0.94-0.762,1.7-1.7,1.7
	h-14.62v38.152h53.86v-38.152H225.857z"/>
<path style="fill:#EABE96;" d="M225.857,285.075h-14.62c-0.94,0-1.7-0.76-1.7-1.7v-11.764H198.86v51.616h26.998v-38.152H225.857z"/>
<circle style="fill:#FED8B2;" cx="164.565" cy="246.95" r="8.48"/>
<circle style="fill:#EABE96;" cx="233.297" cy="246.95" r="8.48"/>
<path style="fill:#F4E3C3;" d="M199.882,282.27h-1.912c-17.674,0-32.001-14.327-32.001-32.001v-29.217
	c0-17.674,14.327-32.001,32.001-32.001h1.912c17.674,0,32.001,14.327,32.001,32.001v29.217
	C231.883,267.942,217.556,282.27,199.882,282.27z"/>
<path style="fill:#FED8B2;" d="M199.882,189.051h-1.024v93.219h1.024c17.674,0,32.001-14.327,32.001-32.001v-29.217
	C231.883,203.378,217.556,189.051,199.882,189.051z"/>
<path style="fill:#B97850;" d="M228.413,199.865c-6.285-8.952-16.679-14.81-28.448-14.81h-2.076
	c-19.189,0-34.871,15.555-34.871,34.744v2.688v46.222h5.229v-36.1c-0.002,0-0.002,0-0.003,0
	c15.479-1.572,30.698-4.608,44.037-11.278c4.801,5.513,10.343,10.435,16.463,14.429v32.949h5.963v-40.043V219.8
	C234.709,212.381,232.375,205.509,228.413,199.865z"/>
<path style="fill:#935635;" d="M228.413,199.865c-6.285-8.952-16.679-14.81-28.448-14.81h-1.105v41.655
	c4.632-1.467,9.126-3.234,13.422-5.382c4.801,5.513,10.343,10.435,16.463,14.429v32.949h5.963v-40.043v-8.864
	C234.709,212.381,232.375,205.509,228.413,199.865z"/>
<circle style="fill:#59595B;" cx="183.39" cy="243.192" r="3.296"/>
<circle style="fill:#272525;" cx="214.472" cy="243.192" r="3.296"/>
<path style="fill:#FD8469;" d="M198.927,270.204c-5.937,0-10.768-4.83-10.768-10.768c0-1.007,0.815-1.822,1.822-1.822
	s1.822,0.815,1.822,1.822c0,3.927,3.196,7.123,7.123,7.123c3.927,0,7.123-3.196,7.123-7.123c0-1.007,0.815-1.822,1.822-1.822
	c1.007,0,1.822,0.815,1.822,1.822C209.695,265.374,204.864,270.204,198.927,270.204z"/>
<path style="fill:#FC6F58;" d="M207.873,257.613c-1.007,0-1.822,0.815-1.822,1.822c0,3.927-3.194,7.123-7.123,7.123
	c-0.022,0-0.045-0.003-0.069-0.003v3.644c0.022,0,0.045,0.003,0.069,0.003c5.937,0,10.768-4.83,10.768-10.768
	C209.695,258.43,208.879,257.613,207.873,257.613z"/>
<path style="fill:#FD8469;" d="M252.787,309.692c0-13.595-11.021-24.617-24.617-24.617h-11.288c0,9.916-8.039,31.572-17.953,31.572
	c-9.916,0-17.953-21.656-17.953-31.572h-11.292c-13.596,0-24.617,11.023-24.617,24.617v13.534h107.72V309.692z"/>
<path style="fill:#FC6F58;" d="M252.787,309.692c0-13.595-11.021-24.617-24.617-24.617h-11.288c0,9.916-8.039,31.572-17.953,31.572
	c-0.022,0-0.045-0.003-0.069-0.003v6.584h53.927V309.692z"/>
<g>
</g>
<g>
</g>
<g>
</g>
<g>
</g>
<g>
</g>
<g>
</g>
<g>
</g>
<g>
</g>
<g>
</g>
<g>
</g>
<g>
</g>
<g>
</g>
<g>
</g>
<g>
</g>
<g>
</g>
</svg>
