<?xml version="1.0" encoding="iso-8859-1"?>
<!-- Generator: Adobe Illustrator 19.0.0, SVG Export Plug-In . SVG Version: 6.00 Build 0)  -->
<svg version="1.1" id="Layer_1" xmlns="http://www.w3.org/2000/svg" xmlns:xlink="http://www.w3.org/1999/xlink" x="0px" y="0px"
	 viewBox="0 0 460 460" style="enable-background:new 0 0 460 460;" xml:space="preserve">
<g>
	<path style="fill:#71E2F0;" d="M230,0C102.974,0,0,102.975,0,230c0,101.497,65.743,187.639,156.969,218.163l287.825-300.576
		C411.655,61.27,327.983,0,230,0z"/>
	<path style="fill:#38C6D9;" d="M460,230c0-29.041-5.397-56.818-15.219-82.401l-66.1-66.101L46.318,263.501l78.013,78.014
		l-12.013,61.986l44.654,44.654C179.917,455.833,204.471,460,230,460C357.026,460,460,357.025,460,230z"/>
	<path style="fill:#FFC61B;" d="M357.36,194.5l57.64,10c0,31.83-25.8,57.63-57.64,57.63V194.5z"/>
	<path style="fill:#FFEDB5;" d="M415,204.5h-57.64v-57.64C389.2,146.86,415,172.67,415,204.5z"/>
	<path style="fill:#121149;" d="M152.318,264.501l20,68c16.5,0,30-13.5,30-30v-19L152.318,264.501z"/>
	<path style="fill:#FFEDB5;" d="M132.318,264.501l10,139c16.5,0,30-13.5,30-30v-109H132.318z"/>
	<rect x="112.318" y="264.501" style="fill:#FFFFFF;" width="30" height="139"/>
	<polygon style="fill:#FFFFFF;" points="202.318,125.501 181.409,214.499 368.682,204.499 358.682,81.499 	"/>
	<polygon style="fill:#FFEDB5;" points="202.318,283.501 181.409,204.499 368.682,204.499 358.682,327.499 	"/>
	<polygon style="fill:#D48B07;" points="378.682,204.499 368.682,194.499 358.682,204.499 358.682,327.499 378.682,327.499 	"/>
	<polygon style="fill:#121149;" points="46.318,204.501 46.318,263.501 66.318,263.501 76.318,194.501 	"/>
	<polygon style="fill:#273B7A;" points="46.318,145.501 46.318,204.501 76.318,204.501 66.318,145.501 	"/>
	<polygon style="fill:#D48B07;" points="202.318,204.501 202.318,283.501 66.318,283.501 66.318,204.501 129.136,184.501 	"/>
	<rect x="66.318" y="125.501" style="fill:#FFC61B;" width="136" height="79"/>
	<rect x="358.682" y="81.499" style="fill:#FFC61B;" width="20" height="123"/>
</g>
<g>
</g>
<g>
</g>
<g>
</g>
<g>
</g>
<g>
</g>
<g>
</g>
<g>
</g>
<g>
</g>
<g>
</g>
<g>
</g>
<g>
</g>
<g>
</g>
<g>
</g>
<g>
</g>
<g>
</g>
</svg>
